<?xml version="1.0" encoding="UTF-8"?>
<!-- Generator: visioncortex VTracer 0.6.1 -->
<svg version="1.1" xmlns="http://www.w3.org/2000/svg" width="1280" height="720">
<path d="M0 0 C1.22387421 -0.00972839 1.22387421 -0.00972839 2.47247314 -0.01965332 C4.2997475 -0.02117795 6.12697246 0.02971256 7.953125 0.09375 C8.448125 0.58875 8.448125 0.58875 8.953125 1.09375 C11.96409914 1.12563626 14.96307552 1.0252375 17.97265625 0.93359375 C20.93803791 1.09293929 22.50779435 1.4578295 24.953125 3.09375 C25.448125 4.08375 25.448125 4.08375 25.953125 5.09375 C26.324375 5.733125 26.695625 6.3725 27.078125 7.03125 C27.953125 9.09375 27.953125 9.09375 26.953125 12.09375 C27.88125 12.031875 28.809375 11.97 29.765625 11.90625 C32.953125 12.09375 32.953125 12.09375 34.640625 13.28125 C35.953125 15.09375 35.953125 15.09375 37.390625 17.59375 C39.60064155 21.12977647 41.78871105 22.6334003 45.640625 24.15625 C47.953125 25.09375 47.953125 25.09375 48.953125 27.09375 C49.04363569 28.78918591 49.07067372 30.48818978 49.06665039 32.18603516 C49.06657486 33.24698395 49.06649933 34.30793274 49.06642151 35.40103149 C49.06126022 36.55001923 49.05609894 37.69900696 49.05078125 38.8828125 C49.04865883 40.64315323 49.04865883 40.64315323 49.04649353 42.4390564 C49.04088189 46.19897985 49.02832738 49.95884445 49.015625 53.71875 C49.0106115 56.26301998 49.00604833 58.80729088 49.00195312 61.3515625 C48.99090868 67.59897853 48.97415918 73.84636006 48.953125 80.09375 C47.303125 80.75375 45.653125 81.41375 43.953125 82.09375 C43.953125 82.75375 43.953125 83.41375 43.953125 84.09375 C42.963125 84.09375 41.973125 84.09375 40.953125 84.09375 C40.293125 86.07375 39.633125 88.05375 38.953125 90.09375 C37.963125 90.09375 36.973125 90.09375 35.953125 90.09375 C36.283125 91.08375 36.613125 92.07375 36.953125 93.09375 C35.468125 93.58875 35.468125 93.58875 33.953125 94.09375 C33.953125 93.43375 33.953125 92.77375 33.953125 92.09375 C32.303125 92.42375 30.653125 92.75375 28.953125 93.09375 C28.953125 93.75375 28.953125 94.41375 28.953125 95.09375 C20.538125 95.58875 20.538125 95.58875 11.953125 96.09375 C11.458125 98.07375 11.458125 98.07375 10.953125 100.09375 C12.54825555 101.68888055 14.26072201 101.25866933 16.46875 101.3046875 C17.39042969 101.33304687 18.31210937 101.36140625 19.26171875 101.390625 C21.20684895 101.44228848 23.15218726 101.486681 25.09765625 101.5234375 C34.08985279 101.82359427 34.08985279 101.82359427 37.953125 105.09375 C38.828125 107.21875 38.828125 107.21875 38.953125 109.09375 C38.623125 109.42375 38.293125 109.75375 37.953125 110.09375 C38.57960938 110.34769531 39.20609375 110.60164063 39.8515625 110.86328125 C40.66882813 111.20746094 41.48609375 111.55164063 42.328125 111.90625 C43.14023437 112.24269531 43.95234375 112.57914062 44.7890625 112.92578125 C46.953125 114.09375 46.953125 114.09375 48.953125 117.09375 C49.19363403 119.84623718 49.19363403 119.84623718 49.18017578 123.2175293 C49.17994919 125.10915047 49.17994919 125.10915047 49.17971802 127.03898621 C49.16950476 128.41531532 49.15907277 129.79164283 49.1484375 131.16796875 C49.14470672 132.57615458 49.14186006 133.984343 49.13986206 135.39253235 C49.13223064 139.0964781 49.11258648 142.80026668 49.0904541 146.50415039 C49.06998503 150.28464634 49.06085808 154.06516772 49.05078125 157.84570312 C49.02934004 165.26179036 48.99521013 172.67774814 48.953125 180.09375 C47.963125 180.42375 46.973125 180.75375 45.953125 181.09375 C45.953125 181.75375 45.953125 182.41375 45.953125 183.09375 C39.2779216 183.11901945 32.60273043 183.13658268 25.92749023 183.14868164 C23.65469909 183.15372325 21.3819112 183.16055637 19.10913086 183.16918945 C15.85008949 183.18126261 12.59109083 183.18697987 9.33203125 183.19140625 C8.30912491 183.19656754 7.28621857 183.20172882 6.23231506 183.20704651 C5.29141525 183.20712204 4.35051544 183.20719757 3.38110352 183.20727539 C2.54837418 183.209496 1.71564484 183.21171661 0.85768127 183.21400452 C-1.046875 183.09375 -1.046875 183.09375 -2.046875 182.09375 C-2.541875 181.7225 -3.036875 181.35125 -3.546875 180.96875 C-7.74927391 175.71575136 -6.17307998 165.93132482 -6.14453125 159.59765625 C-6.1431163 158.40897446 -6.14170135 157.22029266 -6.14024353 155.99559021 C-6.13466614 152.21578406 -6.12211775 148.43603811 -6.109375 144.65625 C-6.10435708 142.0865894 -6.09979468 139.51692787 -6.09570312 136.94726562 C-6.08470411 130.66274003 -6.0679885 124.37824932 -6.046875 118.09375 C-7.15417969 117.81402344 -8.26148438 117.53429687 -9.40234375 117.24609375 C-13.58427885 115.92383131 -14.68001801 114.68786617 -17.046875 111.09375 C-18.76913996 107.84525023 -18.76913996 107.84525023 -22.046875 107.09375 C-22.19125 108.393125 -22.335625 109.6925 -22.484375 111.03125 C-22.921875 114.96875 -22.921875 114.96875 -24.046875 116.09375 C-23.716875 117.08375 -23.386875 118.07375 -23.046875 119.09375 C-22.97115108 121.05661858 -22.95742336 123.02210245 -22.97753906 124.98632812 C-22.98795227 126.19768433 -22.99836548 127.40904053 -23.00909424 128.65710449 C-23.02671814 129.96651001 -23.04434204 131.27591553 -23.0625 132.625 C-23.07919572 133.98116007 -23.09585785 135.33732056 -23.11248779 136.69348145 C-23.14894081 139.53482034 -23.1901655 142.37604942 -23.23388672 145.21728516 C-23.28892357 148.85897519 -23.32543159 152.50060076 -23.35751724 156.14255524 C-23.38537001 158.94282347 -23.42642287 161.74278611 -23.47112274 164.54283142 C-23.49965792 166.53857495 -23.51434789 168.53450082 -23.52886963 170.53039551 C-23.55189148 171.74175171 -23.57491333 172.95310791 -23.59863281 174.20117188 C-23.61275208 175.26911987 -23.62687134 176.33706787 -23.64141846 177.43737793 C-24.046875 180.09375 -24.046875 180.09375 -25.2782135 181.94075012 C-27.58645143 183.44550276 -29.04570505 183.45596394 -31.79370117 183.43432617 C-32.75447067 183.43409958 -33.71524017 183.43387299 -34.7051239 183.43363953 C-35.73958145 183.41815567 -36.774039 183.40267181 -37.83984375 183.38671875 C-38.90100906 183.38247391 -39.96217438 183.37822906 -41.05549622 183.37385559 C-44.44871265 183.35704706 -47.84133772 183.31939019 -51.234375 183.28125 C-53.53319456 183.266206 -55.83202341 183.25251711 -58.13085938 183.24023438 C-63.76973342 183.20713645 -69.40826197 183.1569153 -75.046875 183.09375 C-75.376875 182.10375 -75.706875 181.11375 -76.046875 180.09375 C-77.036875 180.09375 -78.026875 180.09375 -79.046875 180.09375 C-80.20621306 176.61573582 -80.12788367 173.9961754 -80.06860352 170.32739258 C-80.05899597 169.64420456 -80.04938843 168.96101654 -80.03948975 168.25712585 C-80.00652957 166.0007385 -79.96618605 163.74454656 -79.92578125 161.48828125 C-79.90147721 159.92315864 -79.87763379 158.35802882 -79.85423279 156.79289246 C-79.79142009 152.67464984 -79.72234548 148.55653506 -79.65197754 144.43841553 C-79.58126868 140.23569558 -79.51646699 136.03288505 -79.45117188 131.83007812 C-79.3221958 123.5845351 -79.18660597 115.33911775 -79.046875 107.09375 C-79.706875 107.09375 -80.366875 107.09375 -81.046875 107.09375 C-81.11640092 94.5501807 -81.16969958 82.00665728 -81.20231152 69.46293449 C-81.217964 63.63830634 -81.23919494 57.81381007 -81.27319336 51.98925781 C-81.30580126 46.36771473 -81.32373116 40.74629848 -81.33150673 35.12466812 C-81.33704763 32.98047006 -81.34786763 30.8362789 -81.36406517 28.69213486 C-81.38585815 25.68767066 -81.3888411 22.6837298 -81.38745117 19.67919922 C-81.398237 18.79374924 -81.40902283 17.90829926 -81.4201355 16.99601746 C-81.39458053 11.88736378 -80.72301002 8.5882155 -78.046875 4.09375 C-77.716875 3.10375 -77.386875 2.11375 -77.046875 1.09375 C-68.91737145 0.96146612 -60.78784175 0.83097206 -52.6582756 0.70259857 C-48.88105643 0.64289999 -45.10384804 0.58264544 -41.32666016 0.52099609 C-12.50738441 0.05151002 -12.50738441 0.05151002 0 0 Z M-21.046875 19.09375 C-25.83097421 26.26989882 -25.29513993 34.8070858 -25.09375 43.13671875 C-25.07346741 44.26394852 -25.05318481 45.39117828 -25.0322876 46.55256653 C-24.98693931 48.9217889 -24.93621096 51.2909138 -24.88037109 53.65991211 C-24.79689673 57.28030741 -24.73515976 60.90062237 -24.67578125 64.52148438 C-24.62890021 66.83075584 -24.58076623 69.14000229 -24.53125 71.44921875 C-24.51342468 72.52745407 -24.49559937 73.60568939 -24.47723389 74.71659851 C-24.34309131 79.87120938 -24.10340383 84.27499022 -22.046875 89.09375 C-20.08793139 88.98068303 -20.08793139 88.98068303 -18.046875 88.09375 C-16.79973097 85.68422977 -16.79973097 85.68422977 -16.046875 83.09375 C-15.716875 82.43375 -15.386875 81.77375 -15.046875 81.09375 C-12.09824615 80.19076725 -9.07052549 79.68996277 -6.046875 79.09375 C-5.29390053 73.04178814 -4.88769037 67.1383951 -4.87890625 61.04296875 C-4.87557785 60.22174026 -4.87224945 59.40051178 -4.86882019 58.55439758 C-4.8637993 56.835994 -4.86141035 55.11758083 -4.86157227 53.39916992 C-4.85936599 50.77051051 -4.84110591 48.14225841 -4.82226562 45.51367188 C-4.81933461 43.83593892 -4.81734786 42.158204 -4.81640625 40.48046875 C-4.80922073 39.69814377 -4.80203522 38.91581879 -4.79463196 38.10978699 C-4.78712252 32.77577035 -4.78712252 32.77577035 -7.046875 28.09375 C-10.37895679 26.34002274 -12.19965337 26.09375 -16.046875 26.09375 C-16.35625 25.31 -16.665625 24.52625 -16.984375 23.71875 C-17.97562538 21.17044872 -17.97562538 21.17044872 -19.046875 19.09375 C-19.706875 19.09375 -20.366875 19.09375 -21.046875 19.09375 Z M37.953125 84.09375 C38.283125 85.08375 38.613125 86.07375 38.953125 87.09375 C39.283125 86.10375 39.613125 85.11375 39.953125 84.09375 C39.293125 84.09375 38.633125 84.09375 37.953125 84.09375 Z M-54.046875 181.09375 C-54.046875 181.42375 -54.046875 181.75375 -54.046875 182.09375 C-49.756875 182.09375 -45.466875 182.09375 -41.046875 182.09375 C-41.046875 181.76375 -41.046875 181.43375 -41.046875 181.09375 C-45.336875 181.09375 -49.626875 181.09375 -54.046875 181.09375 Z M-37.046875 181.09375 C-37.046875 181.42375 -37.046875 181.75375 -37.046875 182.09375 C-34.076875 182.09375 -31.106875 182.09375 -28.046875 182.09375 C-28.046875 181.76375 -28.046875 181.43375 -28.046875 181.09375 C-31.016875 181.09375 -33.986875 181.09375 -37.046875 181.09375 Z M23.953125 181.09375 C23.953125 181.42375 23.953125 181.75375 23.953125 182.09375 C27.583125 182.09375 31.213125 182.09375 34.953125 182.09375 C34.953125 181.76375 34.953125 181.43375 34.953125 181.09375 C31.323125 181.09375 27.693125 181.09375 23.953125 181.09375 Z " fill="#F2F2F2" transform="translate(363.046875,246.90625)"/>
<path d="M0 0 C1.22161835 -0.02236725 2.44323669 -0.0447345 3.70187378 -0.06777954 C5.01858063 -0.07425507 6.33528748 -0.08073059 7.69189453 -0.08740234 C9.06186178 -0.09958968 10.4318264 -0.11207592 11.80178833 -0.12484741 C14.67163056 -0.14730197 17.54120769 -0.15687514 20.41113281 -0.15917969 C24.07928739 -0.16446112 27.74522182 -0.21578359 31.41277885 -0.27869606 C34.24224421 -0.31966835 37.07117791 -0.32882265 39.90091324 -0.32929611 C41.90736175 -0.33726519 43.91359838 -0.37753438 45.91964722 -0.41836548 C54.7946844 -0.35220067 54.7946844 -0.35220067 58.11383057 1.95782471 C60.53628944 4.68408853 61.79471695 6.9866899 62.94970703 10.45166016 C64.94088111 11.14424245 66.94182063 11.80913651 68.94970703 12.45166016 C70.62247181 13.6024828 70.62247181 13.6024828 71.94970703 15.45166016 C72.31885052 18.38205242 72.31885052 18.38205242 72.31047058 22.03849792 C72.31303386 22.71076379 72.31559713 23.38302965 72.31823808 24.0756672 C72.32318772 26.33299514 72.30666442 28.5896573 72.2902832 30.84692383 C72.28943718 32.46310917 72.28991158 34.07929567 72.29161072 35.69548035 C72.29247307 40.08782517 72.27480851 44.47992528 72.25388885 48.87221313 C72.23516204 53.46063869 72.23337476 58.04906958 72.22981262 62.63752747 C72.22048039 71.32856017 72.19585068 80.01947994 72.16576415 88.71046287 C72.13225678 98.60391958 72.11574336 108.49738163 72.10067785 118.39088094 C72.06930214 138.74453709 72.01651877 159.09809152 71.94970703 179.45166016 C69.96970703 180.44166016 69.96970703 180.44166016 67.94970703 181.45166016 C67.94970703 181.78166016 67.94970703 182.11166016 67.94970703 182.45166016 C61.47197843 182.55306509 54.99445442 182.62312732 48.51611328 182.67138672 C46.31225943 182.69150435 44.10845896 182.71880187 41.90478516 182.75341797 C38.73733347 182.80192849 35.57058735 182.82462752 32.40283203 182.84228516 C30.92450897 182.87325287 30.92450897 182.87325287 29.4163208 182.90484619 C22.60330811 182.90708197 22.60330811 182.90708197 19.33447266 180.62939453 C17.42774207 177.63079848 17.34084411 175.23008714 17.19970703 171.70166016 C17.14298828 170.53119141 17.08626953 169.36072266 17.02783203 168.15478516 C17.00205078 167.26275391 16.97626953 166.37072266 16.94970703 165.45166016 C16.61970703 165.45166016 16.28970703 165.45166016 15.94970703 165.45166016 C15.98523682 164.46472168 16.0207666 163.4777832 16.05737305 162.4609375 C16.1896934 158.72988748 16.31213227 154.9985626 16.43188477 151.26708984 C16.48461087 149.66511371 16.53986682 148.06321843 16.59790039 146.46142578 C16.96168047 136.36415598 16.92563033 126.52432837 15.94970703 116.45166016 C12.59986528 118.00251282 11.01083759 119.35996432 8.94970703 122.45166016 C6.37565732 126.31273473 4.33950444 126.39485708 -0.05029297 127.45166016 C-0.19346532 132.22051805 -0.33585987 136.9893983 -0.47753906 141.75830078 C-0.52582862 143.38005193 -0.57432933 145.00179681 -0.62304688 146.62353516 C-0.69310358 148.95685223 -0.76239662 151.29019094 -0.83154297 153.62353516 C-0.86435364 154.70813019 -0.86435364 154.70813019 -0.89782715 155.81463623 C-0.99242415 159.02950689 -1.05029297 162.23492617 -1.05029297 165.45166016 C-1.05029297 168.45166016 -1.05029297 171.45166016 -1.05029297 174.45166016 C-1.71029297 174.78166016 -2.37029297 175.11166016 -3.05029297 175.45166016 C-5.11299173 178.76952858 -5.11299173 178.76952858 -6.05029297 182.45166016 C-12.68880903 182.52762702 -19.32721332 182.58022472 -25.96606445 182.61645508 C-28.22522165 182.63155618 -30.48434946 182.65203858 -32.7434082 182.67797852 C-35.9877039 182.71430323 -39.23161253 182.73137324 -42.47607422 182.74462891 C-43.48865799 182.76011276 -44.50124176 182.77559662 -45.54450989 182.79154968 C-46.95563301 182.79188957 -46.95563301 182.79188957 -48.39526367 182.79223633 C-49.22355179 182.79889816 -50.0518399 182.80556 -50.90522766 182.81242371 C-53.56095839 182.36577491 -54.39917092 181.53408343 -56.05029297 179.45166016 C-57.28141965 176.9894068 -57.19414861 175.34340968 -57.2219696 172.58869934 C-57.23464874 171.56112518 -57.24732788 170.53355103 -57.26039124 169.47483826 C-57.26928879 168.34288528 -57.27818634 167.21093231 -57.28735352 166.04467773 C-57.30702179 164.26157196 -57.30702179 164.26157196 -57.3270874 162.44244385 C-57.36178569 159.17569001 -57.39195277 155.90893599 -57.41947913 152.64211488 C-57.43697827 150.60009456 -57.45585553 148.55809182 -57.47522926 146.51608849 C-57.54281983 139.3887739 -57.60521143 132.2614351 -57.6628418 125.1340332 C-57.7166427 118.49707242 -57.78174675 111.86028805 -57.85218018 105.22348481 C-57.91217937 99.5223767 -57.96420727 93.8212314 -58.01010734 88.11999243 C-58.03764394 84.71650421 -58.06836455 81.31311908 -58.10712242 77.90973854 C-58.14831847 74.10837167 -58.17647932 70.30711882 -58.20141602 66.50561523 C-58.21638626 65.38378342 -58.23135651 64.2619516 -58.2467804 63.10612488 C-58.26944997 57.50987911 -58.12491256 52.68784949 -56.05029297 47.45166016 C-53.95654297 46.11181641 -53.95654297 46.11181641 -51.55029297 45.51416016 C-50.75623047 45.29888672 -49.96216797 45.08361328 -49.14404297 44.86181641 C-47.05029297 44.45166016 -47.05029297 44.45166016 -45.05029297 44.45166016 C-44.88013672 43.82517578 -44.70998047 43.19869141 -44.53466797 42.55322266 C-44.29232422 41.73595703 -44.04998047 40.91869141 -43.80029297 40.07666016 C-43.45224609 38.85849609 -43.45224609 38.85849609 -43.09716797 37.61572266 C-42.05029297 35.45166016 -42.05029297 35.45166016 -40.12841797 34.10009766 C-38.05029297 33.45166016 -38.05029297 33.45166016 -35.05029297 34.45166016 C-35.05029297 33.79166016 -35.05029297 33.13166016 -35.05029297 32.45166016 C-34.39029297 31.79166016 -33.73029297 31.13166016 -33.05029297 30.45166016 C-32.67904297 29.66791016 -32.30779297 28.88416016 -31.92529297 28.07666016 C-29.91525644 25.26260902 -29.05459829 24.86327649 -25.98779297 23.57666016 C-23.83696134 22.68659575 -23.83696134 22.68659575 -22.05029297 21.45166016 C-21.3453803 19.12959491 -20.67816868 16.79572948 -20.05029297 14.45166016 C-18.30219691 13.43458609 -16.54738527 12.42044285 -14.72216797 11.54931641 C-11.86025252 9.67034855 -11.23269135 6.54841781 -10.05029297 3.45166016 C-6.87169421 0.30528404 -4.38390635 0.05896489 0 0 Z M11.94970703 17.45166016 C11.61970703 18.52416016 11.28970703 19.59666016 10.94970703 20.70166016 C9.55529823 24.04285225 8.15173191 25.18492991 4.88720703 26.70166016 C4.19498047 26.97494141 3.50275391 27.24822266 2.78955078 27.52978516 C0.60270277 28.43548136 0.60270277 28.43548136 -1.05029297 31.45166016 C-1.34880669 34.45867281 -1.34880669 34.45867281 -1.29321289 37.92675781 C-1.29511124 38.57907883 -1.29700958 39.23139984 -1.29896545 39.90348816 C-1.30266762 42.05768891 -1.29197914 44.21155192 -1.28076172 46.36572266 C-1.27956972 47.86119548 -1.2791168 49.35666906 -1.27937317 50.85214233 C-1.27780939 53.98432103 -1.26952633 57.11638525 -1.25610352 60.24853516 C-1.23908444 64.2716612 -1.23529006 68.29466177 -1.2360487 72.3178196 C-1.23577739 75.40436001 -1.23030298 78.49087278 -1.22304726 81.57740402 C-1.21985657 83.06143357 -1.21789225 84.54546626 -1.21715355 86.02949905 C-1.21499585 88.09817143 -1.20626502 90.16670813 -1.19555664 92.23535156 C-1.19174484 93.41433014 -1.18793304 94.59330872 -1.18400574 95.80801392 C-1.35034158 98.37510654 -1.35034158 98.37510654 -0.05029297 99.45166016 C2.44970703 99.61832682 2.44970703 99.61832682 4.94970703 99.45166016 C6.30589202 98.32631911 6.30589202 98.32631911 6.01220703 95.38916016 C5.99158203 94.41978516 5.97095703 93.45041016 5.94970703 92.45166016 C11.94970703 89.45166016 11.94970703 89.45166016 14.01220703 88.51416016 C16.11177376 87.60186835 16.11177376 87.60186835 16.94970703 85.45166016 C17.10787147 82.45612716 17.20877441 79.48077065 17.26611328 76.48291016 C17.28689438 75.57400024 17.30767548 74.66509033 17.3290863 73.7286377 C17.37242974 71.79179691 17.41346164 69.85490325 17.45239258 67.91796875 C17.51085104 65.01890615 17.57626848 62.12007248 17.64306641 59.22119141 C17.74789881 54.53146396 17.83426317 49.84169875 17.90704346 45.15136719 C17.93511624 43.37495052 17.96608354 41.59857683 18.00018311 39.82226562 C18.0450424 37.37582141 18.07569177 34.92961507 18.10205078 32.48291016 C18.11716202 31.76985718 18.13227325 31.0568042 18.14784241 30.32214355 C18.17678848 25.61902222 17.40863846 21.86765177 15.94970703 17.45166016 C14.62970703 17.45166016 13.30970703 17.45166016 11.94970703 17.45166016 Z M6.94970703 22.45166016 C7.27970703 23.11166016 7.60970703 23.77166016 7.94970703 24.45166016 C8.27970703 23.79166016 8.60970703 23.13166016 8.94970703 22.45166016 C8.28970703 22.45166016 7.62970703 22.45166016 6.94970703 22.45166016 Z M4.94970703 122.45166016 C5.27970703 123.11166016 5.60970703 123.77166016 5.94970703 124.45166016 C6.27970703 123.79166016 6.60970703 123.13166016 6.94970703 122.45166016 C6.28970703 122.45166016 5.62970703 122.45166016 4.94970703 122.45166016 Z M-53.05029297 180.45166016 C-53.05029297 180.78166016 -53.05029297 181.11166016 -53.05029297 181.45166016 C-50.41029297 181.45166016 -47.77029297 181.45166016 -45.05029297 181.45166016 C-45.05029297 181.12166016 -45.05029297 180.79166016 -45.05029297 180.45166016 C-47.69029297 180.45166016 -50.33029297 180.45166016 -53.05029297 180.45166016 Z M28.94970703 180.45166016 C32.94970703 181.45166016 32.94970703 181.45166016 32.94970703 181.45166016 Z M39.94970703 180.45166016 C39.94970703 180.78166016 39.94970703 181.11166016 39.94970703 181.45166016 C41.59970703 181.45166016 43.24970703 181.45166016 44.94970703 181.45166016 C44.94970703 181.12166016 44.94970703 180.79166016 44.94970703 180.45166016 C43.29970703 180.45166016 41.64970703 180.45166016 39.94970703 180.45166016 Z " fill="#F2F2F2" transform="translate(949.05029296875,247.54833984375)"/>
<path d="M0 0 C0.93932373 0.02239746 1.87864746 0.04479492 2.84643555 0.06787109 C3.70922119 0.10348145 4.57200684 0.1390918 5.4609375 0.17578125 C6.21938965 0.20196533 6.9778418 0.22814941 7.75927734 0.25512695 C9.625 0.6875 9.625 0.6875 11.625 3.6875 C12.615 4.0175 13.605 4.3475 14.625 4.6875 C15.25 6.625 15.25 6.625 15.625 8.6875 C16.83565165 11.10880331 17.84373407 11.53408222 20.1875 12.8125 C21.321875 13.43125 22.45625 14.05 23.625 14.6875 C23.625 15.3475 23.625 16.0075 23.625 16.6875 C24.285 16.6875 24.945 16.6875 25.625 16.6875 C25.71838925 37.6101665 25.78895266 58.5327987 25.83224869 79.45563126 C25.852885 89.17019869 25.88102599 98.88463671 25.92675781 108.59912109 C25.96659289 117.06502834 25.99242504 125.53084188 26.00135398 133.99684024 C26.00657439 138.4806902 26.0188663 142.96427206 26.04792023 147.44803619 C26.07503683 151.66693645 26.08345267 155.88545775 26.07743073 160.10443687 C26.07853265 161.65405778 26.0865091 163.20369114 26.1018219 164.75323677 C26.12169231 166.86739187 26.11695163 168.98011178 26.10601807 171.09429932 C26.10970524 172.27788151 26.11339241 173.4614637 26.11719131 174.68091202 C25.5271476 178.28523883 24.37240264 179.38570896 21.625 181.6875 C21.625 182.0175 21.625 182.3475 21.625 182.6875 C15.11054795 182.7380939 8.59614632 182.77318856 2.08154297 182.79736328 C-0.13592421 182.80743825 -2.35337805 182.82109859 -4.57080078 182.83837891 C-7.75296312 182.86256163 -10.93495024 182.87396797 -14.1171875 182.8828125 C-15.61099442 182.89829636 -15.61099442 182.89829636 -17.13497925 182.91409302 C-18.51618454 182.91431961 -18.51618454 182.91431961 -19.92529297 182.91455078 C-20.7380368 182.918992 -21.55078064 182.92343323 -22.38815308 182.92800903 C-24.375 182.6875 -24.375 182.6875 -26.375 180.6875 C-27.035 180.6875 -27.695 180.6875 -28.375 180.6875 C-30.35725413 173.27633881 -30.63857978 166.42644238 -30.5703125 158.77734375 C-30.5674826 157.56929581 -30.56465271 156.36124786 -30.56173706 155.11659241 C-30.55060767 151.28595772 -30.52551623 147.45556315 -30.5 143.625 C-30.48996085 141.01627944 -30.48083664 138.40755518 -30.47265625 135.79882812 C-30.45069205 129.4283045 -30.41728695 123.05791942 -30.375 116.6875 C-32.025 116.6875 -33.675 116.6875 -35.375 116.6875 C-37.025 119.6575 -38.675 122.6275 -40.375 125.6875 C-42.355 125.6875 -44.335 125.6875 -46.375 125.6875 C-47.11238553 129.0404996 -47.53641614 132.23261443 -47.67211914 135.66137695 C-47.71208511 136.62199539 -47.75205109 137.58261383 -47.79322815 138.57234192 C-47.83181442 139.5964769 -47.8704007 140.62061188 -47.91015625 141.67578125 C-47.95313339 142.73411667 -47.99611053 143.79245209 -48.04039001 144.88285828 C-48.1764774 148.25510213 -48.30705984 151.62753345 -48.4375 155 C-48.52893377 157.28972807 -48.62072644 159.57944184 -48.71289062 161.86914062 C-48.93775501 167.47510127 -49.15810296 173.08122575 -49.375 178.6875 C-50.035 178.6875 -50.695 178.6875 -51.375 178.6875 C-51.705 180.0075 -52.035 181.3275 -52.375 182.6875 C-67.555 182.6875 -82.735 182.6875 -98.375 182.6875 C-99.035 181.3675 -99.695 180.0475 -100.375 178.6875 C-101.365 178.6875 -102.355 178.6875 -103.375 178.6875 C-103.49172673 161.78947867 -103.5799356 144.89158289 -103.63406086 127.99325085 C-103.65985856 120.14730044 -103.69503854 112.30160032 -103.75219727 104.45581055 C-103.80198486 97.61855525 -103.83427963 90.78148118 -103.84544247 83.94404966 C-103.85196929 80.322525 -103.8673403 76.70151884 -103.90365028 73.08016014 C-103.94382775 69.04042801 -103.94495247 65.00160107 -103.94262695 60.96166992 C-103.96060333 59.75685974 -103.97857971 58.55204956 -103.99710083 57.31072998 C-103.99022751 56.21276596 -103.98335419 55.11480194 -103.97627258 53.98356628 C-103.98088155 53.02766696 -103.98549051 52.07176764 -103.99023914 51.08690166 C-103.375 48.6875 -103.375 48.6875 -101.07570171 46.89946461 C-97.84717111 45.45063196 -94.88253002 45.03137549 -91.375 44.6875 C-90.715 42.0475 -90.055 39.4075 -89.375 36.6875 C-86.405 36.0275 -83.435 35.3675 -80.375 34.6875 C-80.148125 33.24375 -79.92125 31.8 -79.6875 30.3125 C-79.1328125 27.81640625 -79.1328125 27.81640625 -78.375 25.6875 C-76.0625 24.25 -76.0625 24.25 -73.375 23.6875 C-70.6556707 22.90047649 -70.6556707 22.90047649 -68.375 21.6875 C-67.61269206 19.8057079 -67.61269206 19.8057079 -67.375 17.6875 C-66.625 15.5625 -66.625 15.5625 -65.375 13.6875 C-62.75 12.4375 -62.75 12.4375 -60.375 11.6875 C-60.375 10.6975 -60.375 9.7075 -60.375 8.6875 C-59.09765625 6.8984375 -59.09765625 6.8984375 -57.4375 5.0625 C-56.61958984 4.14597656 -56.61958984 4.14597656 -55.78515625 3.2109375 C-52.9144279 0.10959662 -50.42298049 0.35167577 -46.3125 0.125 C-45.56444092 0.0832666 -44.81638184 0.0415332 -44.0456543 -0.00146484 C-29.38186116 -0.72849698 -14.66819983 -0.49221333 0 0 Z M-37.375 17.6875 C-37.705 19.3375 -38.035 20.9875 -38.375 22.6875 C-39.035 22.6875 -39.695 22.6875 -40.375 22.6875 C-40.375 23.6775 -40.375 24.6675 -40.375 25.6875 C-42.355 26.0175 -44.335 26.3475 -46.375 26.6875 C-49.68596291 34.63900804 -49.70671667 41.79813134 -49.484375 50.3125 C-49.45882657 51.70969474 -49.4345357 53.10691299 -49.41143799 54.50415039 C-49.36019938 57.41239508 -49.29878748 60.32016941 -49.22900391 63.22802734 C-49.13953727 66.96154265 -49.06835628 70.69511853 -49.00371933 74.42913818 C-48.94115359 77.99455681 -48.86923378 81.55976913 -48.796875 85.125 C-48.78392143 85.80628967 -48.77096786 86.48757935 -48.75762177 87.18951416 C-48.71960621 89.104318 -48.67396763 91.018966 -48.62792969 92.93359375 C-48.60333679 94.02341553 -48.5787439 95.1132373 -48.55340576 96.23608398 C-48.64755785 98.63291432 -48.64755785 98.63291432 -47.375 99.6875 C-45.70882885 99.72813832 -44.04111905 99.730221 -42.375 99.6875 C-42.00375 98.429375 -41.6325 97.17125 -41.25 95.875 C-39.99045236 92.46822353 -39.63746413 91.84607208 -36.375 89.875 C-34.89 89.2871875 -34.89 89.2871875 -33.375 88.6875 C-30.30156487 86.35592852 -29.9421073 84.43659847 -29.375 80.6875 C-29.37091693 78.81047962 -29.42774438 76.93276257 -29.53125 75.05859375 C-29.58474609 73.95410889 -29.63824219 72.84962402 -29.69335938 71.71166992 C-29.75330078 70.52806885 -29.81324219 69.34446777 -29.875 68.125 C-30.38797018 56.65030979 -30.28264765 45.30933542 -29.69335938 33.83959961 C-29.42265871 28.28248998 -29.30150201 23.15760375 -30.375 17.6875 C-32.685 17.6875 -34.995 17.6875 -37.375 17.6875 Z " fill="#F2F2F2" transform="translate(539.375,247.3125)"/>
<path d="M0 0 C1.18637306 -0.00043808 1.18637306 -0.00043808 2.39671326 -0.00088501 C4.99391908 0.00050105 7.59083297 0.01602791 10.18798828 0.03173828 C11.99545129 0.03547099 13.80291632 0.03831674 15.61038208 0.04031372 C20.35491577 0.04792988 25.09932595 0.06756098 29.84381104 0.08972168 C34.69029062 0.11022364 39.53679028 0.11932473 44.38330078 0.12939453 C53.88335488 0.15080883 63.38331754 0.18492035 72.88330078 0.22705078 C73.37830078 1.21705078 73.37830078 1.21705078 73.88330078 2.22705078 C73.55330078 2.88705078 73.22330078 3.54705078 72.88330078 4.22705078 C73.87330078 3.89705078 74.86330078 3.56705078 75.88330078 3.22705078 C76.19267578 4.34080078 76.50205078 5.45455078 76.82080078 6.60205078 C77.54300406 8.5820875 77.54300406 8.5820875 78.88330078 10.22705078 C81.82567945 11.44260793 84.72701564 11.90282023 87.88330078 12.22705078 C88.21330078 13.54705078 88.54330078 14.86705078 88.88330078 16.22705078 C89.54330078 16.22705078 90.20330078 16.22705078 90.88330078 16.22705078 C90.91216829 20.37286965 90.93005406 24.51866295 90.94580078 28.66455078 C90.95417969 29.84855469 90.96255859 31.03255859 90.97119141 32.25244141 C90.97441406 33.37714844 90.97763672 34.50185547 90.98095703 35.66064453 C90.98619385 36.702771 90.99143066 37.74489746 90.99682617 38.81860352 C90.88330078 41.22705078 90.88330078 41.22705078 89.88330078 42.22705078 C90.21330078 42.22705078 90.54330078 42.22705078 90.88330078 42.22705078 C90.88330078 44.86705078 90.88330078 47.50705078 90.88330078 50.22705078 C90.22330078 50.22705078 89.56330078 50.22705078 88.88330078 50.22705078 C88.84205078 50.84580078 88.80080078 51.46455078 88.75830078 52.10205078 C87.88330078 54.22705078 87.88330078 54.22705078 85.59814453 55.34814453 C80.24407768 56.61487959 75.05164399 56.47613329 69.57080078 56.41455078 C68.4615625 56.41390625 67.35232422 56.41326172 66.20947266 56.41259766 C58.02373336 56.36748336 58.02373336 56.36748336 56.88330078 55.22705078 C55.53582994 54.99629996 54.17952513 54.81552015 52.82080078 54.66455078 C51.52142578 54.52017578 50.22205078 54.37580078 48.88330078 54.22705078 C48.88330078 53.23705078 48.88330078 52.24705078 48.88330078 51.22705078 C48.22330078 51.22705078 47.56330078 51.22705078 46.88330078 51.22705078 C45.89330078 48.25705078 45.89330078 48.25705078 44.88330078 45.22705078 C42.90330078 44.89705078 40.92330078 44.56705078 38.88330078 44.22705078 C39.21330078 43.23705078 39.54330078 42.24705078 39.88330078 41.22705078 C38.39830078 41.72205078 38.39830078 41.72205078 36.88330078 42.22705078 C34.8260749 37.05889797 34.46816759 32.33482118 34.25830078 26.85205078 C34.21962891 26.02060547 34.18095703 25.18916016 34.14111328 24.33251953 C34.04755832 22.29769922 33.96437366 20.26240662 33.88330078 18.22705078 C32.23330078 17.56705078 30.58330078 16.90705078 28.88330078 16.22705078 C28.69767578 17.92861328 28.69767578 17.92861328 28.50830078 19.66455078 C28.30205078 20.84017578 28.09580078 22.01580078 27.88330078 23.22705078 C27.22330078 23.55705078 26.56330078 23.88705078 25.88330078 24.22705078 C24.89330078 24.88705078 23.90330078 25.54705078 22.88330078 26.22705078 C22.20267578 26.33017578 21.52205078 26.43330078 20.82080078 26.53955078 C18.64556302 27.05864101 18.64556302 27.05864101 17.77807999 29.45176601 C16.87280996 32.25958956 16.63188599 34.3817629 16.6293335 37.31910706 C16.62087402 38.82267258 16.62087402 38.82267258 16.61224365 40.35661316 C16.61629211 41.44509048 16.62034058 42.53356781 16.62451172 43.6550293 C16.62100708 44.81000916 16.61750244 45.96498901 16.6138916 47.15496826 C16.6050903 50.97202568 16.61091755 54.78889773 16.61767578 58.60595703 C16.61632877 61.2572401 16.61439104 63.90851754 16.61187744 66.55979919 C16.60824201 72.11548878 16.61302632 77.67112514 16.62255859 83.22680664 C16.63344772 89.64739956 16.6299126 96.0678655 16.61890578 102.48845536 C16.60982724 108.00535689 16.60855024 113.52222022 16.61378312 119.03912681 C16.61689902 122.33232333 16.6165357 125.62544715 16.61071014 128.91864204 C16.60564247 132.58867154 16.61335862 136.25845562 16.62451172 139.9284668 C16.62046326 141.01896835 16.61641479 142.10946991 16.61224365 143.23301697 C16.6178833 144.23257416 16.62352295 145.23213135 16.6293335 146.26197815 C16.63046457 147.56302663 16.63046457 147.56302663 16.6316185 148.89035892 C16.91183661 151.49198578 17.42777574 153.05485182 18.88330078 155.22705078 C22.33811778 156.95773349 22.33811778 156.95773349 25.88330078 158.22705078 C27.88330078 159.22705078 27.88330078 159.22705078 29.00830078 162.28955078 C29.29705078 163.25892578 29.58580078 164.22830078 29.88330078 165.22705078 C31.53330078 165.55705078 33.18330078 165.88705078 34.88330078 166.22705078 C34.86759033 165.22327393 34.85187988 164.21949707 34.83569336 163.18530273 C34.78124964 159.44873123 34.74689852 155.71219457 34.71850586 151.9753418 C34.70345202 150.36037289 34.6830043 148.74544465 34.65698242 147.13061523 C34.62044792 144.80458523 34.60354063 142.47909737 34.59033203 140.15283203 C34.57484818 139.43492996 34.55936432 138.71702789 34.54341125 137.97737122 C34.54193885 133.5565897 35.10048382 130.71002035 37.88330078 127.22705078 C42.95074113 125.63575091 48.60214569 126.07592954 53.88330078 126.10205078 C54.83285645 126.10398437 55.78241211 126.10591797 56.76074219 126.10791016 C67.14780716 126.16930144 77.5133268 126.65717206 87.88330078 127.22705078 C90.53407109 131.81040024 91.26729137 135.14361403 91.28173828 140.41845703 C91.28604355 141.42005104 91.28604355 141.42005104 91.29043579 142.44187927 C91.29246538 143.84448095 91.28701324 145.24711165 91.27441406 146.6496582 C91.25831675 148.78743057 91.27431112 150.92332016 91.29345703 153.06103516 C91.2914749 154.43017992 91.28763183 155.79932352 91.28173828 157.16845703 C91.27835449 158.40281494 91.2749707 159.63717285 91.27148438 160.90893555 C90.85175965 164.496658 90.12170438 166.41056195 87.88330078 169.22705078 C84.75830078 169.91455078 84.75830078 169.91455078 81.88330078 170.22705078 C81.55330078 170.88705078 81.22330078 171.54705078 80.88330078 172.22705078 C80.55330078 172.88705078 80.22330078 173.54705078 79.88330078 174.22705078 C79.55330078 175.21705078 79.22330078 176.20705078 78.88330078 177.22705078 C77.33685303 179.8790741 77.33685303 179.8790741 74.88330078 182.22705078 C71.93494389 182.70514992 69.56961706 182.86246999 66.62646484 182.79467773 C65.79682724 182.79540787 64.96718964 182.796138 64.1124115 182.79689026 C61.37391463 182.79341057 58.63712496 182.75453283 55.89892578 182.71533203 C53.99893117 182.70600523 52.09892452 182.69888849 50.19891357 182.69389343 C45.20089451 182.67481317 40.20360329 182.62570339 35.20587158 182.57037354 C30.10495856 182.51920329 25.0039278 182.49638414 19.90283203 182.47119141 C9.89600202 182.41758576 -0.11028805 182.33226038 -10.11669922 182.22705078 C-10.77669922 180.90705078 -11.43669922 179.58705078 -12.11669922 178.22705078 C-13.10669922 178.22705078 -14.09669922 178.22705078 -15.11669922 178.22705078 C-15.46732422 177.29892578 -15.81794922 176.37080078 -16.17919922 175.41455078 C-18.62414343 171.3922232 -20.84919364 170.97977629 -25.11669922 169.22705078 C-27.11818435 166.55840393 -28.06359726 164.38635666 -29.11669922 161.22705078 C-29.77669922 160.89705078 -30.43669922 160.56705078 -31.11669922 160.22705078 C-31.11669922 159.23705078 -31.11669922 158.24705078 -31.11669922 157.22705078 C-33.09669922 157.22705078 -35.07669922 157.22705078 -37.11669922 157.22705078 C-39.9113917 149.40191185 -40.25853811 142.3060065 -40.23022461 134.08105469 C-40.23037064 132.96827148 -40.23051666 131.85548828 -40.23066711 130.70898438 C-40.22997191 127.04050733 -40.22219785 123.37208142 -40.21435547 119.70361328 C-40.2124899 117.1562808 -40.21106665 114.60894796 -40.21006775 112.06161499 C-40.20664314 106.04817336 -40.19876615 100.03475358 -40.18871826 94.0213207 C-40.17752393 87.17246315 -40.17203831 80.3236047 -40.16702282 73.47474027 C-40.15658261 59.392167 -40.1390039 45.30960989 -40.11669922 31.22705078 C-39.45669922 31.22705078 -38.79669922 31.22705078 -38.11669922 31.22705078 C-38.11669922 29.24705078 -38.11669922 27.26705078 -38.11669922 25.22705078 C-37.45669922 25.22705078 -36.79669922 25.22705078 -36.11669922 25.22705078 C-36.11669922 24.56705078 -36.11669922 23.90705078 -36.11669922 23.22705078 C-35.45669922 23.22705078 -34.79669922 23.22705078 -34.11669922 23.22705078 C-33.78669922 22.56705078 -33.45669922 21.90705078 -33.11669922 21.22705078 C-33.11669922 21.88705078 -33.11669922 22.54705078 -33.11669922 23.22705078 C-31.46669922 22.89705078 -29.81669922 22.56705078 -28.11669922 22.22705078 C-27.90013672 21.08236328 -27.90013672 21.08236328 -27.67919922 19.91455078 C-27.11669922 17.22705078 -27.11669922 17.22705078 -26.11669922 14.22705078 C-24.12060547 13.27001953 -24.12060547 13.27001953 -21.67919922 12.41455078 C-17.72804855 10.83899841 -17.72804855 10.83899841 -15.61669922 7.10205078 C-15.45169922 6.15330078 -15.28669922 5.20455078 -15.11669922 4.22705078 C-14.11669922 2.22705078 -14.11669922 2.22705078 -11.56149292 1.11624146 C-7.64789051 0.10603909 -4.00869222 -0.03917262 0 0 Z M88.88330078 44.22705078 C89.88330078 47.22705078 89.88330078 47.22705078 89.88330078 47.22705078 Z M75.88330078 53.22705078 C75.88330078 53.55705078 75.88330078 53.88705078 75.88330078 54.22705078 C79.18330078 54.22705078 82.48330078 54.22705078 85.88330078 54.22705078 C85.88330078 53.89705078 85.88330078 53.56705078 85.88330078 53.22705078 C82.58330078 53.22705078 79.28330078 53.22705078 75.88330078 53.22705078 Z M-24.11669922 167.22705078 C-24.11669922 167.88705078 -24.11669922 168.54705078 -24.11669922 169.22705078 C-22.46669922 169.22705078 -20.81669922 169.22705078 -19.11669922 169.22705078 C-21.49831931 167.81319167 -21.49831931 167.81319167 -24.11669922 167.22705078 Z M11.88330078 180.22705078 C11.88330078 180.55705078 11.88330078 180.88705078 11.88330078 181.22705078 C26.07330078 181.22705078 40.26330078 181.22705078 54.88330078 181.22705078 C54.88330078 180.89705078 54.88330078 180.56705078 54.88330078 180.22705078 C40.69330078 180.22705078 26.50330078 180.22705078 11.88330078 180.22705078 Z " fill="#F2F2F2" transform="translate(626.11669921875,247.77294921875)"/>
<path d="M0 0 C1.32914177 0.00839149 1.32914177 0.00839149 2.68513489 0.01695251 C3.64943924 0.02832748 4.61374359 0.03970245 5.60726929 0.05142212 C6.62876572 0.05942337 7.65026215 0.06742462 8.70271301 0.07566833 C12.08030935 0.10355696 15.45777694 0.13902862 18.83529663 0.17495728 C21.17891151 0.19672344 23.52252934 0.21817311 25.8661499 0.23931885 C30.77712884 0.2848171 35.68805266 0.33404346 40.59896851 0.38589478 C46.90536722 0.45219644 53.21180955 0.50943559 59.51832008 0.56392479 C64.35662543 0.60668782 69.19487604 0.65413205 74.03312302 0.703022 C76.35922253 0.7259754 78.68533682 0.74747802 81.01146317 0.76752853 C84.25570793 0.79621375 87.49982502 0.8311611 90.74398804 0.86782837 C92.19651726 0.87881813 92.19651726 0.87881813 93.6783905 0.89002991 C94.55884537 0.90126389 95.43930023 0.91249786 96.34643555 0.92407227 C97.11370279 0.93182364 97.88097004 0.939575 98.67148781 0.94756126 C100.54623413 1.08901978 100.54623413 1.08901978 102.54623413 2.08901978 C102.54623413 2.74901978 102.54623413 3.40901978 102.54623413 4.08901978 C103.53623413 5.07901978 103.53623413 5.07901978 104.54623413 6.08901978 C106.2615478 15.03848239 105.53874835 24.53795855 105.23373413 33.58901978 C105.18188965 35.28961548 105.18188965 35.28961548 105.1289978 37.02456665 C104.87586819 43.24776053 104.36744284 48.44660236 101.54623413 54.08901978 C100.2129008 54.42235311 98.87956746 54.75568644 97.54623413 55.08901978 C97.05123413 56.07901978 97.05123413 56.07901978 96.54623413 57.08901978 C92.37962737 57.14753953 88.21312776 57.18279038 84.04623413 57.21401978 C82.87318726 57.23077759 81.70014038 57.2475354 80.49154663 57.26480103 C74.13541565 57.30050963 68.62166225 56.9988697 62.54623413 55.08901978 C62.87623413 54.09901978 63.20623413 53.10901978 63.54623413 52.08901978 C62.06123413 51.59401978 62.06123413 51.59401978 60.54623413 51.08901978 C60.29873413 50.47026978 60.05123413 49.85151978 59.79623413 49.21401978 C58.60658695 46.70157703 58.60658695 46.70157703 55.04623413 45.65151978 C51.54623413 44.08901978 51.54623413 44.08901978 50.35336304 41.80899048 C49.55023271 39.10249471 49.2357755 36.82156032 49.13217163 34.00698853 C49.07416382 32.60996704 49.07416382 32.60996704 49.01498413 31.1847229 C48.98404663 30.22501587 48.95310913 29.26530884 48.92123413 28.27651978 C48.86322632 26.80795532 48.86322632 26.80795532 48.80404663 25.3097229 C48.71012597 22.90300603 48.62445212 20.49628966 48.54623413 18.08901978 C46.89623413 18.41901978 45.24623413 18.74901978 43.54623413 19.08901978 C43.54623413 38.22901978 43.54623413 57.36901978 43.54623413 77.08901978 C54.13642621 77.0100955 54.13642621 77.0100955 64.72640991 76.90884399 C66.06478556 76.9029968 67.40316479 76.89790178 68.74154663 76.89370728 C69.42338013 76.88347534 70.10521362 76.87324341 70.80770874 76.86270142 C75.09196901 76.86115419 78.6032095 77.3848375 82.54623413 79.08901978 C82.87623413 79.74901978 83.20623413 80.40901978 83.54623413 81.08901978 C84.05541382 81.46026978 84.56459351 81.83151978 85.08920288 82.21401978 C87.40436856 85.19332145 86.93903353 88.47875866 86.85873413 92.08901978 C86.86195679 92.8134729 86.86517944 93.53792603 86.86849976 94.28433228 C86.83008712 98.06972268 86.69092817 99.87197872 84.54623413 103.08901978 C83.55623413 103.08901978 82.56623413 103.08901978 81.54623413 103.08901978 C81.54623413 103.74901978 81.54623413 104.40901978 81.54623413 105.08901978 C76.33198819 105.25665719 71.11759065 105.41721447 65.90292358 105.57119751 C64.12877528 105.62458586 62.35468422 105.67991276 60.58065796 105.73721313 C58.03154848 105.81921246 55.48231485 105.89425122 52.93295288 105.96792603 C52.1391069 105.99496109 51.34526093 106.02199615 50.52735901 106.04985046 C47.23986697 106.13906409 44.69273632 106.13785384 41.54623413 105.08901978 C41.73185913 105.89339478 41.91748413 106.69776978 42.10873413 107.52651978 C42.25310913 108.37214478 42.39748413 109.21776978 42.54623413 110.08901978 C42.21623413 110.41901978 41.88623413 110.74901978 41.54623413 111.08901978 C41.42279386 112.95998089 41.3683102 114.83552905 41.34091187 116.71035767 C41.32096664 117.91152725 41.30102142 119.11269684 41.2804718 120.3502655 C41.26375931 121.65753098 41.24704681 122.96479645 41.22982788 124.31167603 C41.20926455 125.65546824 41.18826825 126.9992539 41.16685486 128.34303284 C41.11156994 131.88576965 41.06218915 135.42856544 41.01400757 138.97140503 C40.96383926 142.58423127 40.90812888 146.19697149 40.85287476 149.8097229 C40.74521476 156.90274724 40.64378733 163.99584866 40.54623413 171.08901978 C41.20623413 171.08901978 41.86623413 171.08901978 42.54623413 171.08901978 C42.21623413 172.07901978 41.88623413 173.06901978 41.54623413 174.08901978 C41.38123413 174.74901978 41.21623413 175.40901978 41.04623413 176.08901978 C40.29156676 179.10768926 39.78208497 180.85316893 37.54623413 183.08901978 C35.58630371 183.34971619 35.58630371 183.34971619 33.16000366 183.36367798 C31.79816452 183.377976 31.79816452 183.377976 30.40881348 183.39256287 C29.42549042 183.39165146 28.44216736 183.39074005 27.42904663 183.38980103 C26.42034515 183.39408615 25.41164368 183.39837128 24.37237549 183.40278625 C22.23551179 183.4085369 20.09862852 183.40902444 17.96176147 183.4046936 C14.69140148 183.40153923 11.42195056 183.42496467 8.15170288 183.4503479 C6.07748527 183.45262136 4.00326523 183.45332417 1.92904663 183.45230103 C0.94977203 183.46151077 -0.02950256 183.47072052 -1.03845215 183.48020935 C-1.95264923 183.47398056 -2.86684631 183.46775177 -3.80874634 183.46133423 C-4.61101654 183.46196365 -5.41328674 183.46259308 -6.23986816 183.46324158 C-9.26162679 182.95246461 -10.38071499 182.39318932 -12.45376587 180.08901978 C-15.14137074 172.0312573 -14.73671912 163.67633495 -14.71255493 155.27554321 C-14.71526881 153.68628784 -14.71883197 152.09703373 -14.72317505 150.50778198 C-14.73225113 146.21469601 -14.72877541 141.92170674 -14.72241688 137.62861919 C-14.71733559 133.12796973 -14.72205391 128.62732827 -14.72518921 124.12667847 C-14.72882116 116.57472249 -14.72404845 109.02280573 -14.71450806 101.47085571 C-14.70360922 92.74284348 -14.70716255 84.01492459 -14.71816087 75.28691459 C-14.72723692 67.78352426 -14.72851793 60.28016201 -14.72328353 52.77676797 C-14.72016761 48.29927047 -14.71974443 43.82181687 -14.72635651 39.3443222 C-14.73213451 35.1384875 -14.72812476 30.93277329 -14.71656799 26.7269516 C-14.71392452 25.18421631 -14.71468117 23.64147087 -14.71909332 22.09873962 C-14.72456223 19.99231523 -14.71769881 17.88627656 -14.70773315 15.77987671 C-14.7069791 14.60153133 -14.70622505 13.42318596 -14.70544815 12.20913315 C-14.37360142 8.09521848 -13.63042703 5.18723686 -10.57876587 2.33901978 C-7.11057026 0.29890471 -3.9779484 -0.03624245 0 0 Z M103.54623413 20.08901978 C103.54623413 22.06901978 103.54623413 24.04901978 103.54623413 26.08901978 C103.87623413 26.08901978 104.20623413 26.08901978 104.54623413 26.08901978 C104.54623413 24.10901978 104.54623413 22.12901978 104.54623413 20.08901978 C104.21623413 20.08901978 103.88623413 20.08901978 103.54623413 20.08901978 Z M103.54623413 27.08901978 C104.54623413 30.08901978 104.54623413 30.08901978 104.54623413 30.08901978 Z M53.54623413 43.08901978 C57.54623413 44.08901978 57.54623413 44.08901978 57.54623413 44.08901978 Z M22.54623413 181.08901978 C26.54623413 182.08901978 26.54623413 182.08901978 26.54623413 182.08901978 Z " fill="#F3F3F3" transform="translate(163.45376586914063,246.91098022460938)"/>
<path d="M0 0 C1.02961853 0.01288055 2.05923706 0.02576111 3.12005615 0.03903198 C5.93353868 0.07729022 8.74567695 0.13577962 11.55859375 0.203125 C12.35942886 0.2126973 13.16026398 0.22226959 13.98536682 0.23213196 C16.15795898 0.30175781 16.15795898 0.30175781 19.5625 0.75 C20.5525 2.235 20.5525 2.235 21.5625 3.75 C22.5525 4.08 23.5425 4.41 24.5625 4.75 C25.51007616 7.59272847 25.69119841 9.35420884 25.6953125 12.30078125 C25.69724609 13.21722412 25.69917969 14.13366699 25.70117188 15.07788086 C25.69666016 16.06280518 25.69214844 17.04772949 25.6875 18.0625 C25.68556641 19.07256104 25.68363281 20.08262207 25.68164062 21.12329102 C25.62273529 31.67961735 25.14720618 42.21129318 24.5625 52.75 C23.5725 53.245 23.5725 53.245 22.5625 53.75 C21.5725 54.74 21.5725 54.74 20.5625 55.75 C14.34726674 57.82174442 7.03807806 57.589179 0.875 55.5 C-1.53152957 53.67884249 -2.54298018 52.61246343 -3.4375 49.75 C-3.4375 48.76 -3.4375 47.77 -3.4375 46.75 C-4.365625 46.481875 -5.29375 46.21375 -6.25 45.9375 C-10.18730821 44.47065969 -11.64074267 43.32902817 -13.51171875 39.62109375 C-14.6794618 35.99961214 -14.5936234 32.92236512 -14.5 29.125 C-14.31938206 23.84039343 -14.31938206 23.84039343 -15.4375 18.75 C-18.46126093 18.40383991 -18.46126093 18.40383991 -20.10245228 20.34741592 C-21.83553467 23.46631279 -21.80680361 25.62729448 -21.79826355 29.19134521 C-21.80082682 29.83588063 -21.8033901 30.48041605 -21.80603105 31.14448285 C-21.81096847 33.30198088 -21.79447771 35.4587775 -21.77807617 37.61621094 C-21.77722989 39.16357914 -21.77770507 40.71094854 -21.77940369 42.25831604 C-21.78026501 46.45846388 -21.76261714 50.6583551 -21.74168181 54.85844326 C-21.72293784 59.24800252 -21.72116637 63.63756754 -21.71760559 68.02716064 C-21.70827842 76.33921174 -21.68365555 84.65114458 -21.65355712 92.96314359 C-21.62003402 102.42615933 -21.60353236 111.8891807 -21.58847082 121.35224104 C-21.55710658 140.81822776 -21.50433302 160.28410437 -21.4375 179.75 C-23.4175 180.74 -23.4175 180.74 -25.4375 181.75 C-25.4375 182.08 -25.4375 182.41 -25.4375 182.75 C-31.89691732 182.85151557 -38.35612852 182.92151376 -44.81616211 182.96972656 C-47.01318042 182.98982767 -49.21014532 183.01711306 -51.40698242 183.05175781 C-54.56702866 183.10034093 -57.72636687 183.12298405 -60.88671875 183.140625 C-62.35729988 183.17159271 -62.35729988 183.17159271 -63.85758972 183.20318604 C-68.24527822 183.20462603 -70.72702224 183.18575222 -74.53442383 180.85058594 C-77.48505309 177.59372716 -77.55656666 175.8051397 -77.51979065 171.4982605 C-77.51275116 170.38484283 -77.50571167 169.27142517 -77.49845886 168.12426758 C-77.48551285 166.89716064 -77.47256683 165.67005371 -77.45922852 164.40576172 C-77.44962097 163.11799835 -77.44001343 161.83023499 -77.43011475 160.50344849 C-77.40361119 156.96644091 -77.37083634 153.42951559 -77.33696485 149.89257193 C-77.3026441 146.1983588 -77.27405015 142.50410154 -77.24485779 138.80984497 C-77.18868275 131.81167793 -77.12733141 124.81356615 -77.06413645 117.81545937 C-76.99245192 109.84945435 -76.92651342 101.88340504 -76.86106598 93.91734672 C-76.72628685 77.52817318 -76.58426446 61.13907068 -76.4375 44.75 C-77.0975 44.75 -77.7575 44.75 -78.4375 44.75 C-78.6349877 41.66722144 -78.81873332 38.5837715 -79 35.5 C-79.08411133 34.19095703 -79.08411133 34.19095703 -79.16992188 32.85546875 C-79.21826172 32.01113281 -79.26660156 31.16679687 -79.31640625 30.296875 C-79.3635376 29.52182617 -79.41066895 28.74677734 -79.45922852 27.94824219 C-79.4375 25.75 -79.4375 25.75 -78.85522461 23.57519531 C-78.64845093 22.67172363 -78.64845093 22.67172363 -78.4375 21.75 C-79.79194301 19.97809091 -79.79194301 19.97809091 -81.4375 18.75 C-82.54539535 22.80308333 -82.77481267 26.82111374 -83 31 C-83.06477539 32.11761719 -83.06477539 32.11761719 -83.13085938 33.2578125 C-83.23646725 35.088349 -83.33744201 36.91915176 -83.4375 38.75 C-85.4175 39.245 -85.4175 39.245 -87.4375 39.75 C-86.4475 40.41 -85.4575 41.07 -84.4375 41.75 C-86.4175 42.245 -86.4175 42.245 -88.4375 42.75 C-88.4375 43.41 -88.4375 44.07 -88.4375 44.75 C-89.860625 44.9046875 -89.860625 44.9046875 -91.3125 45.0625 C-94.72857501 45.43539295 -94.72857501 45.43539295 -96.4375 48.75 C-96.60449232 51.87521833 -96.60449232 51.87521833 -96.4375 54.75 C-100.51774718 56.6859963 -103.87603306 57.04784538 -108.375 57.0625 C-109.55964844 57.07925781 -110.74429688 57.09601563 -111.96484375 57.11328125 C-115.82328315 56.70964248 -118.18461394 55.847567 -121.4375 53.75 C-123.73409606 50.35785116 -123.65506247 47.42483431 -123.58203125 43.40234375 C-123.56350098 42.1582373 -123.5449707 40.91413086 -123.52587891 39.63232422 C-123.49671387 38.35115723 -123.46754883 37.06999023 -123.4375 35.75 C-123.41993652 34.5448877 -123.40237305 33.33977539 -123.38427734 32.09814453 C-123.32418337 28.50178872 -123.22850536 24.90784659 -123.125 21.3125 C-123.10244141 20.09884766 -123.07988281 18.88519531 -123.05664062 17.63476562 C-123.02119141 16.45720703 -122.98574219 15.27964844 -122.94921875 14.06640625 C-122.92303467 13.01912354 -122.89685059 11.97184082 -122.86987305 10.89282227 C-122.35469065 7.14807747 -120.97090936 4.18911124 -119.4375 0.75 C-31.51460741 -0.54162187 -31.51460741 -0.54162187 0 0 Z M23.5625 10.75 C23.5625 13.39 23.5625 16.03 23.5625 18.75 C23.8925 18.75 24.2225 18.75 24.5625 18.75 C24.5625 16.11 24.5625 13.47 24.5625 10.75 C24.2325 10.75 23.9025 10.75 23.5625 10.75 Z M23.5625 20.75 C23.5625 22.4 23.5625 24.05 23.5625 25.75 C23.8925 25.75 24.2225 25.75 24.5625 25.75 C24.5625 24.1 24.5625 22.45 24.5625 20.75 C24.2325 20.75 23.9025 20.75 23.5625 20.75 Z M-77.4375 26.75 C-77.4375 31.7 -77.4375 36.65 -77.4375 41.75 C-77.1075 41.75 -76.7775 41.75 -76.4375 41.75 C-76.4375 36.8 -76.4375 31.85 -76.4375 26.75 C-76.7675 26.75 -77.0975 26.75 -77.4375 26.75 Z M23.5625 27.75 C24.5625 30.75 24.5625 30.75 24.5625 30.75 Z M-9.4375 41.75 C-8.7775 42.41 -8.1175 43.07 -7.4375 43.75 C-7.4375 43.09 -7.4375 42.43 -7.4375 41.75 C-8.0975 41.75 -8.7575 41.75 -9.4375 41.75 Z M-120.4375 51.75 C-119.4375 53.75 -119.4375 53.75 -119.4375 53.75 Z M-118.4375 53.75 C-118.4375 54.08 -118.4375 54.41 -118.4375 54.75 C-116.7875 54.75 -115.1375 54.75 -113.4375 54.75 C-113.4375 54.42 -113.4375 54.09 -113.4375 53.75 C-115.0875 53.75 -116.7375 53.75 -118.4375 53.75 Z M-106.4375 53.75 C-106.4375 54.08 -106.4375 54.41 -106.4375 54.75 C-103.7975 54.75 -101.1575 54.75 -98.4375 54.75 C-98.4375 54.42 -98.4375 54.09 -98.4375 53.75 C-101.0775 53.75 -103.7175 53.75 -106.4375 53.75 Z M1.5625 53.75 C1.5625 54.08 1.5625 54.41 1.5625 54.75 C3.5425 54.75 5.5225 54.75 7.5625 54.75 C7.5625 54.42 7.5625 54.09 7.5625 53.75 C5.5825 53.75 3.6025 53.75 1.5625 53.75 Z M11.5625 53.75 C11.5625 54.08 11.5625 54.41 11.5625 54.75 C14.5325 54.75 17.5025 54.75 20.5625 54.75 C20.5625 54.42 20.5625 54.09 20.5625 53.75 C17.5925 53.75 14.6225 53.75 11.5625 53.75 Z " fill="#F1F1F1" transform="translate(852.4375,247.25)"/>
<path d="M0 0 C1.95993042 -0.38095093 1.95993042 -0.38095093 4.38623047 -0.38818359 C5.29412323 -0.39764008 6.20201599 -0.40709656 7.13742065 -0.4168396 C8.12074371 -0.41076691 9.10406677 -0.40469421 10.1171875 -0.3984375 C11.12588898 -0.40130768 12.13459045 -0.40417786 13.17385864 -0.40713501 C15.31073568 -0.40917924 17.44763127 -0.40362444 19.58447266 -0.39111328 C22.85491932 -0.37509833 26.1241238 -0.39093306 29.39453125 -0.41015625 C31.46875273 -0.40817323 33.54297344 -0.40432833 35.6171875 -0.3984375 C36.5964621 -0.40451019 37.57573669 -0.41058289 38.58468628 -0.4168396 C39.49888336 -0.40738312 40.41308044 -0.39792664 41.35498047 -0.38818359 C42.55838577 -0.38460342 42.55838577 -0.38460342 43.78610229 -0.38095093 C46.80412516 0.13836783 47.9277722 0.69786553 50 3 C52.81958623 10.10452685 52.27670795 18.08354213 52.24291992 25.58203125 C52.24399481 26.93147371 52.24593656 28.28091572 52.24867249 29.63035583 C52.25348724 33.26825012 52.24591033 36.90602026 52.23571944 40.54389954 C52.22689535 44.35641321 52.22869715 48.16892351 52.2290802 51.98144531 C52.2281463 58.37323063 52.21949464 64.76496821 52.20581055 71.15673828 C52.19003411 78.55333112 52.18481443 85.94987193 52.1855461 93.34648037 C52.18615533 100.46653911 52.181063 107.58658088 52.17275429 114.70663452 C52.16921829 117.73692965 52.16739061 120.76721878 52.16686058 123.79751587 C52.16585963 127.35654176 52.1597835 130.91552361 52.14969444 134.47453499 C52.14535994 136.41013768 52.14594261 138.34574939 52.14663696 140.28135681 C52.14237198 141.42246414 52.13810699 142.56357147 52.13371277 143.73925781 C52.13203692 144.73693176 52.13036108 145.73460571 52.12863445 146.76251221 C52 149 52 149 51 150 C50.90044896 151.93538935 50.87031332 153.87455769 50.875 155.8125 C50.87242188 156.87082031 50.86984375 157.92914063 50.8671875 159.01953125 C50.97936339 161.53689017 51.2690879 163.60423255 52 166 C53.32 166.33 54.64 166.66 56 167 C56.33 165.68 56.66 164.36 57 163 C57.66 163 58.32 163 59 163 C58.97643433 162.02389771 58.97643433 162.02389771 58.95239258 161.02807617 C58.89005351 158.08130576 58.85101316 155.13467402 58.8125 152.1875 C58.78736328 151.16333984 58.76222656 150.13917969 58.73632812 149.08398438 C58.72666016 148.10107422 58.71699219 147.11816406 58.70703125 146.10546875 C58.6913208 145.19949951 58.67561035 144.29353027 58.65942383 143.36010742 C59.06634034 140.54027806 59.78370185 139.72258179 62 138 C63.82421875 137.05078125 63.82421875 137.05078125 65.6875 136.3125 C66.780625 135.879375 67.87375 135.44625 69 135 C69 134.34 69 133.68 69 133 C69.66 133 70.32 133 71 133 C71.33 131.35 71.66 129.7 72 128 C73.65 128 75.3 128 77 128 C77 127.34 77 126.68 77 126 C81.5029078 126.06885413 86.00488488 126.1568066 90.50708008 126.26245117 C92.03855059 126.29569818 93.57014356 126.32373093 95.10180664 126.34643555 C97.30407887 126.37998718 99.50522912 126.4322991 101.70703125 126.48828125 C102.39150833 126.49467117 103.07598541 126.5010611 103.78120422 126.50764465 C108.57461287 126.65579572 108.57461287 126.65579572 110.89331055 128.53198242 C111.25851807 129.01642822 111.62372559 129.50087402 112 130 C112.33 130 112.66 130 113 130 C113 142.54 113 155.08 113 168 C111.02 168.66 109.04 169.32 107 170 C106.34 170.66 105.68 171.32 105 172 C104.34 172.33 103.68 172.66 103 173 C101.840394 175.16459787 100.88362821 177.30581407 100.00941467 179.60316467 C98 182 98 182 96.18346977 182.45812798 C93.70534135 182.63347123 91.27102044 182.64062706 88.78686523 182.59936523 C87.8435434 182.60330795 86.90022156 182.60725067 85.92831421 182.61131287 C82.80453713 182.61803588 79.68221481 182.58883473 76.55859375 182.55859375 C74.39291162 182.55434528 72.22722494 182.55201526 70.0615387 182.55152893 C65.52104079 182.54535772 60.98103509 182.52262792 56.44067383 182.48706055 C50.6105254 182.44176064 44.78082295 182.4270337 38.95051479 182.42332363 C34.478496 182.41890229 30.00657153 182.40361173 25.53459358 182.3844471 C23.38432659 182.37554652 21.23404947 182.36882548 19.08376884 182.36428642 C16.08358583 182.3552778 13.08381294 182.33291726 10.08374023 182.30639648 C9.18862228 182.30573181 8.29350433 182.30506714 7.3712616 182.30438232 C1.22916853 182.22916853 1.22916853 182.22916853 -1 180 C-1.52227802 179.540143 -2.04455605 179.08028601 -2.58266068 178.60649395 C-7.52919948 172.99980223 -5.15614685 159.523717 -5.16113281 152.26245117 C-5.16576861 150.68142584 -5.17079429 149.10040162 -5.17617798 147.51937866 C-5.18921925 143.24911846 -5.19572911 138.97887392 -5.20018864 134.70859694 C-5.2031291 132.03924779 -5.20723541 129.36990283 -5.21169281 126.7005558 C-5.22533774 118.34341268 -5.23502251 109.98627925 -5.2388947 101.62912577 C-5.24338663 91.98931813 -5.26099949 82.34965149 -5.2898953 72.70988673 C-5.31148604 65.24813044 -5.32159737 57.78641395 -5.32293582 50.32462674 C-5.3239845 45.87115464 -5.32990737 41.41781563 -5.34775543 36.96437645 C-5.36419396 32.78232082 -5.36641233 28.60049906 -5.35761642 24.4184227 C-5.35684413 22.88332176 -5.36121399 21.34820843 -5.37107468 19.81313896 C-5.3837376 17.71935807 -5.37794953 15.62641308 -5.36749268 13.53263855 C-5.36895924 12.36074573 -5.3704258 11.1888529 -5.3719368 9.98144817 C-4.95852192 6.66751139 -4.1997172 5.44299724 -2 3 C-1.34 2.01 -0.68 1.02 0 0 Z M49 8 C50 11 50 11 50 11 Z M49 13 C50 17 50 17 50 17 Z M32 180 C32 180.33 32 180.66 32 181 C34.31 181 36.62 181 39 181 C39 180.67 39 180.34 39 180 C36.69 180 34.38 180 32 180 Z M40 180 C40 180.33 40 180.66 40 181 C50.89 181 61.78 181 73 181 C73 180.67 73 180.34 73 180 C62.11 180 51.22 180 40 180 Z " fill="#F1F1F1" transform="translate(1048,248)"/>
<path d="M0 0 C1.03930664 0.07831055 1.03930664 0.07831055 2.09960938 0.15820312 C3.79604437 0.28689819 5.49184863 0.42386184 7.1875 0.5625 C3.50827133 3.01531911 1.56490649 2.83073919 -2.8125 2.8125 C-4.05 2.81765625 -5.2875 2.8228125 -6.5625 2.828125 C-9.8125 2.5625 -9.8125 2.5625 -12.8125 0.5625 C-8.46757229 -0.57646163 -4.42629215 -0.36850471 0 0 Z " fill="#5C5C5C" transform="translate(746.8125,301.4375)"/>
<path d="M0 0 C0.33 0 0.66 0 1 0 C1 7.59 1 15.18 1 23 C0.67 23 0.34 23 0 23 C0 15.41 0 7.82 0 0 Z " fill="#F5F5F5" transform="translate(774,373)"/>
<path d="M0 0 C0.33 0 0.66 0 1 0 C1 5.94 1 11.88 1 18 C0.67 18 0.34 18 0 18 C0 12.06 0 6.12 0 0 Z " fill="#F5F5F5" transform="translate(890,323)"/>
<path d="M0 0 C5.61 0 11.22 0 17 0 C17 0.33 17 0.66 17 1 C11.39 1 5.78 1 0 1 C0 0.67 0 0.34 0 0 Z " fill="#0E0E0E" transform="translate(527,246)"/>
<path d="M0 0 C0.33 0 0.66 0 1 0 C1 5.28 1 10.56 1 16 C0.67 16 0.34 16 0 16 C0 10.72 0 5.44 0 0 Z " fill="#F5F5F5" transform="translate(774,401)"/>
<path d="M0 0 C0.33 0 0.66 0 1 0 C1 5.28 1 10.56 1 16 C0.67 16 0.34 16 0 16 C0 10.72 0 5.44 0 0 Z " fill="#F5F5F5" transform="translate(148,327)"/>
<path d="M0 0 C0.33 0 0.66 0 1 0 C1 3.96 1 7.92 1 12 C0.67 12 0.34 12 0 12 C0 8.04 0 4.08 0 0 Z " fill="#F5F5F5" transform="translate(282,392)"/>
<path d="M0 0 C0.33 0 0.66 0 1 0 C1 3.96 1 7.92 1 12 C0.67 12 0.34 12 0 12 C0 8.04 0 4.08 0 0 Z " fill="#F5F5F5" transform="translate(434,366)"/>
<path d="M0 0 C3.96 0 7.92 0 12 0 C12 0.33 12 0.66 12 1 C8.04 1 4.08 1 0 1 C0 0.67 0 0.34 0 0 Z " fill="#F5F5F5" transform="translate(377,347)"/>
<path d="M0 0 C0.33 0 0.66 0 1 0 C1 3.96 1 7.92 1 12 C0.67 12 0.34 12 0 12 C0 8.04 0 4.08 0 0 Z " fill="#3D3D3D" transform="translate(964,300)"/>
<path d="M0 0 C3.96 0 7.92 0 12 0 C12 0.33 12 0.66 12 1 C8.04 1 4.08 1 0 1 C0 0.67 0 0.34 0 0 Z " fill="#F5F5F5" transform="translate(797,246)"/>
<path d="M0 0 C3.96 0 7.92 0 12 0 C12 0.33 12 0.66 12 1 C8.04 1 4.08 1 0 1 C0 0.67 0 0.34 0 0 Z " fill="#3D3D3D" transform="translate(338,246)"/>
<path d="M0 0 C0.33 0 0.66 0 1 0 C1 3.63 1 7.26 1 11 C0.67 11 0.34 11 0 11 C0 7.37 0 3.74 0 0 Z " fill="#F5F5F5" transform="translate(282,365)"/>
<path d="M0 0 C0.33 0 0.66 0 1 0 C1 3.63 1 7.26 1 11 C0.67 11 0.34 11 0 11 C0 7.37 0 3.74 0 0 Z " fill="#F5F5F5" transform="translate(148,286)"/>
<path d="M0 0 C0.33 0 0.66 0 1 0 C1 3.63 1 7.26 1 11 C0.67 11 0.34 11 0 11 C0 7.37 0 3.74 0 0 Z " fill="#F5F5F5" transform="translate(148,264)"/>
<path d="M0 0 C3.63 0 7.26 0 11 0 C11 0.33 11 0.66 11 1 C7.37 1 3.74 1 0 1 C0 0.67 0 0.34 0 0 Z " fill="#F5F5F5" transform="translate(183,246)"/>
<path d="M0 0 C0.33 0 0.66 0 1 0 C1 3.3 1 6.6 1 10 C0.67 10 0.34 10 0 10 C0 6.7 0 3.4 0 0 Z " fill="#F5F5F5" transform="translate(282,406)"/>
<path d="M0 0 C0.33 0 0.66 0 1 0 C1 3.3 1 6.6 1 10 C0.67 10 0.34 10 0 10 C0 6.7 0 3.4 0 0 Z " fill="#F5F5F5" transform="translate(964,315)"/>
<path d="M0 0 C3.3 0 6.6 0 10 0 C10 0.33 10 0.66 10 1 C6.7 1 3.4 1 0 1 C0 0.67 0 0.34 0 0 Z " fill="#626262" transform="translate(811,246)"/>
<path d="M0 0 C3.3 0 6.6 0 10 0 C10 0.33 10 0.66 10 1 C6.7 1 3.4 1 0 1 C0 0.67 0 0.34 0 0 Z " fill="#F5F5F5" transform="translate(233,246)"/>
<path d="M0 0 C3.3 0 6.6 0 10 0 C10 0.33 10 0.66 10 1 C6.7 1 3.4 1 0 1 C0 0.67 0 0.34 0 0 Z " fill="#181818" transform="translate(164,246)"/>
<path d="M0 0 C0.33 0 0.66 0 1 0 C1 2.97 1 5.94 1 9 C0.67 9 0.34 9 0 9 C0 6.03 0 3.06 0 0 Z " fill="#F5F5F5" transform="translate(964,393)"/>
<path d="M0 0 C0.625 1.875 0.625 1.875 1 4 C0.34 4.66 -0.32 5.32 -1 6 C-1.042721 4.33388095 -1.04063832 2.66617115 -1 1 C-0.67 0.67 -0.34 0.34 0 0 Z " fill="#6C6C6C" transform="translate(757,295)"/>
<path d="M0 0 C0.33 0 0.66 0 1 0 C1 2.97 1 5.94 1 9 C0.67 9 0.34 9 0 9 C0 6.03 0 3.06 0 0 Z " fill="#BEBEBE" transform="translate(728,274)"/>
<path d="M0 0 C2.64 0 5.28 0 8 0 C8 0.33 8 0.66 8 1 C5.36 1 2.72 1 0 1 C0 0.67 0 0.34 0 0 Z " fill="#F5F5F5" transform="translate(854,246)"/>
<path d="M0 0 C2.64 0 5.28 0 8 0 C8 0.33 8 0.66 8 1 C5.36 1 2.72 1 0 1 C0 0.67 0 0.34 0 0 Z " fill="#F5F5F5" transform="translate(669,246)"/>
<path d="M0 0 C2.64 0 5.28 0 8 0 C8 0.33 8 0.66 8 1 C5.36 1 2.72 1 0 1 C0 0.67 0 0.34 0 0 Z " fill="#F5F5F5" transform="translate(637,246)"/>
<path d="M0 0 C2.64 0 5.28 0 8 0 C8 0.33 8 0.66 8 1 C5.36 1 2.72 1 0 1 C0 0.67 0 0.34 0 0 Z " fill="#F5F5F5" transform="translate(244,246)"/>
<path d="M0 0 C2.64 0 5.28 0 8 0 C8 0.33 8 0.66 8 1 C5.36 1 2.72 1 0 1 C0 0.67 0 0.34 0 0 Z " fill="#F5F5F5" transform="translate(212,246)"/>
<path d="M0 0 C2.64 0 5.28 0 8 0 C8 0.33 8 0.66 8 1 C5.36 1 2.72 1 0 1 C0 0.67 0 0.34 0 0 Z " fill="#F5F5F5" transform="translate(200,246)"/>
<path d="M0 0 C0.33 0 0.66 0 1 0 C1 2.31 1 4.62 1 7 C0.67 7 0.34 7 0 7 C0 4.69 0 2.38 0 0 Z " fill="#F5F5F5" transform="translate(1105,399)"/>
<path d="M0 0 C0.33 0 0.66 0 1 0 C1 2.31 1 4.62 1 7 C0.67 7 0.34 7 0 7 C0 4.69 0 2.38 0 0 Z " fill="#F5F5F5" transform="translate(282,384)"/>
<path d="M0 0 C0.33 0 0.66 0 1 0 C1 2.31 1 4.62 1 7 C0.67 7 0.34 7 0 7 C0 4.69 0 2.38 0 0 Z " fill="#F5F5F5" transform="translate(282,357)"/>
<path d="M0 0 C0.33 0 0.66 0 1 0 C1 2.31 1 4.62 1 7 C0.67 7 0.34 7 0 7 C0 4.69 0 2.38 0 0 Z " fill="#F5F5F5" transform="translate(507,302)"/>
<path d="M0 0 C0.33 0 0.66 0 1 0 C1 2.31 1 4.62 1 7 C0.67 7 0.34 7 0 7 C0 4.69 0 2.38 0 0 Z " fill="#000000" transform="translate(831,300)"/>
<path d="M0 0 C2.31 0 4.62 0 7 0 C7 0.33 7 0.66 7 1 C4.69 1 2.38 1 0 1 C0 0.67 0 0.34 0 0 Z " fill="#F5F5F5" transform="translate(991,246)"/>
<path d="M0 0 C0.66 0 1.32 0 2 0 C1.67 0.99 1.34 1.98 1 3 C0.34 2.67 -0.32 2.34 -1 2 C-0.67 1.34 -0.34 0.68 0 0 Z " fill="#A3A3A3" transform="translate(1148,426)"/>
<path d="M0 0 C0.33 0 0.66 0 1 0 C1 1.98 1 3.96 1 6 C0.67 6 0.34 6 0 6 C0 4.02 0 2.04 0 0 Z " fill="#F5F5F5" transform="translate(434,415)"/>
<path d="M0 0 C1.98 0 3.96 0 6 0 C6 0.33 6 0.66 6 1 C4.02 1 2.04 1 0 1 C0 0.67 0 0.34 0 0 Z " fill="#000000" transform="translate(1135,372)"/>
<path d="M0 0 C0.33 0 0.66 0 1 0 C1 1.98 1 3.96 1 6 C0.67 6 0.34 6 0 6 C0 4.02 0 2.04 0 0 Z " fill="#F5F5F5" transform="translate(890,371)"/>
<path d="M0 0 C0.33 0 0.66 0 1 0 C1 1.98 1 3.96 1 6 C0.67 6 0.34 6 0 6 C0 4.02 0 2.04 0 0 Z " fill="#F5F5F5" transform="translate(434,319)"/>
<path d="M0 0 C1.32 0.33 2.64 0.66 4 1 C2.68 1.33 1.36 1.66 0 2 C0 1.34 0 0.68 0 0 Z " fill="#515151" transform="translate(261,302)"/>
<path d="M0 0 C0.33 0 0.66 0 1 0 C1 1.98 1 3.96 1 6 C0.67 6 0.34 6 0 6 C0 4.02 0 2.04 0 0 Z " fill="#F5F5F5" transform="translate(774,293)"/>
<path d="M0 0 C0.33 0 0.66 0 1 0 C1 1.98 1 3.96 1 6 C0.67 6 0.34 6 0 6 C0 4.02 0 2.04 0 0 Z " fill="#A3A3A3" transform="translate(728,288)"/>
<path d="M0 0 C1.98 0 3.96 0 6 0 C6 0.33 6 0.66 6 1 C4.02 1 2.04 1 0 1 C0 0.67 0 0.34 0 0 Z " fill="#F5F5F5" transform="translate(838,246)"/>
<path d="M0 0 C1.98 0 3.96 0 6 0 C6 0.33 6 0.66 6 1 C4.02 1 2.04 1 0 1 C0 0.67 0 0.34 0 0 Z " fill="#F5F5F5" transform="translate(657,246)"/>
<path d="M0 0 C1.98 0 3.96 0 6 0 C6 0.33 6 0.66 6 1 C4.02 1 2.04 1 0 1 C0 0.67 0 0.34 0 0 Z " fill="#000000" transform="translate(616,246)"/>
<path d="M0 0 C1.98 0 3.96 0 6 0 C6 0.33 6 0.66 6 1 C4.02 1 2.04 1 0 1 C0 0.67 0 0.34 0 0 Z " fill="#F5F5F5" transform="translate(307,246)"/>
<path d="M0 0 C0.33 0 0.66 0 1 0 C1 1.65 1 3.3 1 5 C0.67 5 0.34 5 0 5 C0 3.35 0 1.7 0 0 Z " fill="#000000" transform="translate(412,420)"/>
<path d="M0 0 C0.99 0.33 1.98 0.66 3 1 C1.68 1.33 0.36 1.66 -1 2 C-0.67 1.34 -0.34 0.68 0 0 Z " fill="#626262" transform="translate(1156,417)"/>
<path d="M0 0 C0.33 0 0.66 0 1 0 C1 1.65 1 3.3 1 5 C0.67 5 0.34 5 0 5 C0 3.35 0 1.7 0 0 Z " fill="#F5F5F5" transform="translate(282,378)"/>
<path d="M0 0 C0.33 0 0.66 0 1 0 C1 1.65 1 3.3 1 5 C0.67 5 0.34 5 0 5 C0 3.35 0 1.7 0 0 Z " fill="#F5F5F5" transform="translate(774,352)"/>
<path d="M0 0 C0.33 0 0.66 0 1 0 C1 1.65 1 3.3 1 5 C0.67 5 0.34 5 0 5 C0 3.35 0 1.7 0 0 Z " fill="#F5F5F5" transform="translate(148,350)"/>
<path d="M0 0 C0.33 0 0.66 0 1 0 C1 1.65 1 3.3 1 5 C0.67 5 0.34 5 0 5 C0 3.35 0 1.7 0 0 Z " fill="#F5F5F5" transform="translate(774,345)"/>
<path d="M0 0 C0.33 0 0.66 0 1 0 C1 1.65 1 3.3 1 5 C0.67 5 0.34 5 0 5 C0 3.35 0 1.7 0 0 Z " fill="#F5F5F5" transform="translate(890,344)"/>
<path d="M0 0 C0.33 0 0.66 0 1 0 C1 1.65 1 3.3 1 5 C0.67 5 0.34 5 0 5 C0 3.35 0 1.7 0 0 Z " fill="#F5F5F5" transform="translate(434,342)"/>
<path d="M0 0 C0.33 0 0.66 0 1 0 C1 1.65 1 3.3 1 5 C0.67 5 0.34 5 0 5 C0 3.35 0 1.7 0 0 Z " fill="#F5F5F5" transform="translate(774,330)"/>
<path d="M0 0 C0.33 0 0.66 0 1 0 C1 1.65 1 3.3 1 5 C0.67 5 0.34 5 0 5 C0 3.35 0 1.7 0 0 Z " fill="#F5F5F5" transform="translate(890,311)"/>
<path d="M0 0 C0.33 0 0.66 0 1 0 C1 1.65 1 3.3 1 5 C0.67 5 0.34 5 0 5 C0 3.35 0 1.7 0 0 Z " fill="#F5F5F5" transform="translate(434,310)"/>
<path d="M0 0 C0.33 0 0.66 0 1 0 C1 1.65 1 3.3 1 5 C0.67 5 0.34 5 0 5 C0 3.35 0 1.7 0 0 Z " fill="#000000" transform="translate(268,293)"/>
<path d="M0 0 C0.33 0 0.66 0 1 0 C1 1.65 1 3.3 1 5 C0.67 5 0.34 5 0 5 C0 3.35 0 1.7 0 0 Z " fill="#F5F5F5" transform="translate(728,268)"/>
<path d="M0 0 C0.33 0 0.66 0 1 0 C1 1.65 1 3.3 1 5 C0.67 5 0.34 5 0 5 C0 3.35 0 1.7 0 0 Z " fill="#F5F5F5" transform="translate(659,268)"/>
<path d="M0 0 C0.33 0 0.66 0 1 0 C1 1.65 1 3.3 1 5 C0.67 5 0.34 5 0 5 C0 3.35 0 1.7 0 0 Z " fill="#F5F5F5" transform="translate(148,257)"/>
<path d="M0 0 C1.65 0 3.3 0 5 0 C5 0.33 5 0.66 5 1 C3.35 1 1.7 1 0 1 C0 0.67 0 0.34 0 0 Z " fill="#F5F5F5" transform="translate(373,247)"/>
<path d="M0 0 C1.65 0 3.3 0 5 0 C5 0.33 5 0.66 5 1 C3.35 1 1.7 1 0 1 C0 0.67 0 0.34 0 0 Z " fill="#F5F5F5" transform="translate(1077,246)"/>
<path d="M0 0 C1.65 0 3.3 0 5 0 C5 0.33 5 0.66 5 1 C3.35 1 1.7 1 0 1 C0 0.67 0 0.34 0 0 Z " fill="#F5F5F5" transform="translate(1049,246)"/>
<path d="M0 0 C1.65 0 3.3 0 5 0 C5 0.33 5 0.66 5 1 C3.35 1 1.7 1 0 1 C0 0.67 0 0.34 0 0 Z " fill="#F5F5F5" transform="translate(962,246)"/>
<path d="M0 0 C1.65 0 3.3 0 5 0 C5 0.33 5 0.66 5 1 C3.35 1 1.7 1 0 1 C0 0.67 0 0.34 0 0 Z " fill="#F5F5F5" transform="translate(751,246)"/>
<path d="M0 0 C1.65 0 3.3 0 5 0 C5 0.33 5 0.66 5 1 C3.35 1 1.7 1 0 1 C0 0.67 0 0.34 0 0 Z " fill="#F5F5F5" transform="translate(688,246)"/>
<path d="M0 0 C1.65 0 3.3 0 5 0 C5 0.33 5 0.66 5 1 C3.35 1 1.7 1 0 1 C0 0.67 0 0.34 0 0 Z " fill="#F5F5F5" transform="translate(679,246)"/>
<path d="M0 0 C0.99 0.495 0.99 0.495 2 1 C1.34 1.66 0.68 2.32 0 3 C0 2.01 0 1.02 0 0 Z " fill="#3D3D3D" transform="translate(946,423)"/>
<path d="M0 0 C1 4 1 4 1 4 Z " fill="#000000" transform="translate(204,421)"/>
<path d="M0 0 C1 4 1 4 1 4 Z " fill="#F5F5F5" transform="translate(890,400)"/>
<path d="M0 0 C1 4 1 4 1 4 Z " fill="#F5F5F5" transform="translate(434,398)"/>
<path d="M0 0 C1 4 1 4 1 4 Z " fill="#F5F5F5" transform="translate(890,394)"/>
<path d="M0 0 C1 4 1 4 1 4 Z " fill="#F5F5F5" transform="translate(964,387)"/>
<path d="M0 0 C1 4 1 4 1 4 Z " fill="#F5F5F5" transform="translate(774,365)"/>
<path d="M0 0 C4 1 4 1 4 1 Z " fill="#000000" transform="translate(392,340)"/>
<path d="M0 0 C1 4 1 4 1 4 Z " fill="#F5F5F5" transform="translate(774,321)"/>
<path d="M0 0 C1 4 1 4 1 4 Z " fill="#000000" transform="translate(281,306)"/>
<path d="M0 0 C0 3 0 3 0 3 Z " fill="#7A7A7A" transform="translate(267,298)"/>
<path d="M0 0 C4 1 4 1 4 1 Z " fill="#000000" transform="translate(1084,246)"/>
<path d="M0 0 C4 1 4 1 4 1 Z " fill="#F5F5F5" transform="translate(1068,246)"/>
<path d="M0 0 C4 1 4 1 4 1 Z " fill="#F5F5F5" transform="translate(982,246)"/>
<path d="M0 0 C4 1 4 1 4 1 Z " fill="#F5F5F5" transform="translate(968,246)"/>
<path d="M0 0 C4 1 4 1 4 1 Z " fill="#F5F5F5" transform="translate(776,246)"/>
<path d="M0 0 C4 1 4 1 4 1 Z " fill="#F5F5F5" transform="translate(771,246)"/>
<path d="M0 0 C4 1 4 1 4 1 Z " fill="#F5F5F5" transform="translate(765,246)"/>
<path d="M0 0 C4 1 4 1 4 1 Z " fill="#F5F5F5" transform="translate(664,246)"/>
<path d="" fill="#F5F5F5" transform="translate(0,0)"/>
<path d="M0 0 C3 1 3 1 3 1 Z " fill="#000000" transform="translate(591,406)"/>
<path d="" fill="#F5F5F5" transform="translate(0,0)"/>
<path d="" fill="#F5F5F5" transform="translate(0,0)"/>
<path d="M0 0 C3 1 3 1 3 1 Z " fill="#000000" transform="translate(704,372)"/>
<path d="" fill="#F5F5F5" transform="translate(0,0)"/>
<path d="" fill="#F5F5F5" transform="translate(0,0)"/>
<path d="" fill="#A3A3A3" transform="translate(0,0)"/>
<path d="" fill="#F5F5F5" transform="translate(0,0)"/>
<path d="" fill="#F5F5F5" transform="translate(0,0)"/>
<path d="" fill="#F5F5F5" transform="translate(0,0)"/>
<path d="" fill="#F5F5F5" transform="translate(0,0)"/>
<path d="" fill="#F5F5F5" transform="translate(0,0)"/>
<path d="" fill="#F5F5F5" transform="translate(0,0)"/>
<path d="M0 0 C3 1 3 1 3 1 Z " fill="#515151" transform="translate(443,292)"/>
<path d="M0 0 C0.66 0 1.32 0 2 0 C1.67 0.66 1.34 1.32 1 2 C0.67 1.34 0.34 0.68 0 0 Z " fill="#515151" transform="translate(1006,249)"/>
<path d="M0 0 C3 1 3 1 3 1 Z " fill="#F5F5F5" transform="translate(949,246)"/>
<path d="M0 0 C3 1 3 1 3 1 Z " fill="#000000" transform="translate(827,246)"/>
<path d="M0 0 C3 1 3 1 3 1 Z " fill="#F5F5F5" transform="translate(781,246)"/>
<path d="M0 0 C3 1 3 1 3 1 Z " fill="#515151" transform="translate(737,246)"/>
<path d="M0 0 C3 1 3 1 3 1 Z " fill="#F5F5F5" transform="translate(653,246)"/>
<path d="M0 0 C3 1 3 1 3 1 Z " fill="#F5F5F5" transform="translate(647,246)"/>
<path d="M0 0 C3 1 3 1 3 1 Z " fill="#F5F5F5" transform="translate(632,246)"/>
<path d="M0 0 C3 1 3 1 3 1 Z " fill="#F5F5F5" transform="translate(323,246)"/>
<path d="M0 0 C3 1 3 1 3 1 Z " fill="#F5F5F5" transform="translate(178,246)"/>
<path d="M0 0 C3 1 3 1 3 1 Z " fill="#000000" transform="translate(494,245)"/>
<path d="" fill="#000000" transform="translate(0,0)"/>
<path d="" fill="#000000" transform="translate(0,0)"/>
<path d="" fill="#000000" transform="translate(0,0)"/>
<path d="" fill="#000000" transform="translate(0,0)"/>
<path d="" fill="#000000" transform="translate(0,0)"/>
<path d="M0 0 C2 1 2 1 2 1 Z " fill="#000000" transform="translate(711,417)"/>
<path d="" fill="#000000" transform="translate(0,0)"/>
<path d="" fill="#F5F5F5" transform="translate(0,0)"/>
<path d="" fill="#000000" transform="translate(0,0)"/>
<path d="" fill="#000000" transform="translate(0,0)"/>
<path d="" fill="#F5F5F5" transform="translate(0,0)"/>
<path d="" fill="#F5F5F5" transform="translate(0,0)"/>
<path d="" fill="#F5F5F5" transform="translate(0,0)"/>
<path d="M0 0 C2 1 2 1 2 1 Z " fill="#000000" transform="translate(1149,372)"/>
<path d="" fill="#F5F5F5" transform="translate(0,0)"/>
<path d="M0 0 C2 1 2 1 2 1 Z " fill="#7A7A7A" transform="translate(206,353)"/>
<path d="" fill="#F5F5F5" transform="translate(0,0)"/>
<path d="" fill="#F5F5F5" transform="translate(0,0)"/>
<path d="" fill="#F5F5F5" transform="translate(0,0)"/>
<path d="" fill="#F5F5F5" transform="translate(0,0)"/>
<path d="M0 0 C2 1 2 1 2 1 Z " fill="#000000" transform="translate(407,329)"/>
<path d="" fill="#000000" transform="translate(0,0)"/>
<path d="" fill="#F5F5F5" transform="translate(0,0)"/>
<path d="" fill="#F5F5F5" transform="translate(0,0)"/>
<path d="" fill="#000000" transform="translate(0,0)"/>
<path d="" fill="#F5F5F5" transform="translate(0,0)"/>
<path d="" fill="#F5F5F5" transform="translate(0,0)"/>
<path d="" fill="#F5F5F5" transform="translate(0,0)"/>
<path d="" fill="#7A7A7A" transform="translate(0,0)"/>
<path d="" fill="#000000" transform="translate(0,0)"/>
<path d="M0 0 C2 1 2 1 2 1 Z " fill="#7A7A7A" transform="translate(446,291)"/>
<path d="" fill="#7A7A7A" transform="translate(0,0)"/>
<path d="" fill="#000000" transform="translate(0,0)"/>
<path d="" fill="#F5F5F5" transform="translate(0,0)"/>
<path d="" fill="#7A7A7A" transform="translate(0,0)"/>
<path d="" fill="#F5F5F5" transform="translate(0,0)"/>
<path d="" fill="#000000" transform="translate(0,0)"/>
<path d="" fill="#000000" transform="translate(0,0)"/>
<path d="M0 0 C2 1 2 1 2 1 Z " fill="#000000" transform="translate(873,249)"/>
<path d="M0 0 C2 1 2 1 2 1 Z " fill="#F5F5F5" transform="translate(1063,246)"/>
<path d="M0 0 C2 1 2 1 2 1 Z " fill="#F5F5F5" transform="translate(976,246)"/>
<path d="M0 0 C2 1 2 1 2 1 Z " fill="#F5F5F5" transform="translate(958,246)"/>
<path d="M0 0 C2 1 2 1 2 1 Z " fill="#F5F5F5" transform="translate(944,246)"/>
<path d="M0 0 C2 1 2 1 2 1 Z " fill="#F5F5F5" transform="translate(848,246)"/>
<path d="M0 0 C2 1 2 1 2 1 Z " fill="#7A7A7A" transform="translate(831,246)"/>
<path d="M0 0 C2 1 2 1 2 1 Z " fill="#F5F5F5" transform="translate(748,246)"/>
<path d="M0 0 C2 1 2 1 2 1 Z " fill="#F5F5F5" transform="translate(741,246)"/>
<path d="M0 0 C2 1 2 1 2 1 Z " fill="#F5F5F5" transform="translate(685,246)"/>
<path d="M0 0 C2 1 2 1 2 1 Z " fill="#000000" transform="translate(497,246)"/>
<path d="M0 0 C2 1 2 1 2 1 Z " fill="#F5F5F5" transform="translate(316,246)"/>
<path d="M0 0 C2 1 2 1 2 1 Z " fill="#F5F5F5" transform="translate(298,246)"/>
<path d="M0 0 C2 1 2 1 2 1 Z " fill="#F5F5F5" transform="translate(295,246)"/>
<path d="" fill="#F5F5F5" transform="translate(0,0)"/>
<path d="" fill="#F5F5F5" transform="translate(0,0)"/>
<path d="" fill="#F5F5F5" transform="translate(0,0)"/>
<path d="" fill="#F5F5F5" transform="translate(0,0)"/>
<path d="" fill="#F5F5F5" transform="translate(0,0)"/>
<path d="" fill="#F5F5F5" transform="translate(0,0)"/>
<path d="" fill="#000000" transform="translate(0,0)"/>
<path d="" fill="#000000" transform="translate(0,0)"/>
<path d="" fill="#000000" transform="translate(0,0)"/>
<path d="" fill="#000000" transform="translate(0,0)"/>
<path d="" fill="#000000" transform="translate(0,0)"/>
<path d="" fill="#000000" transform="translate(0,0)"/>
<path d="" fill="#000000" transform="translate(0,0)"/>
<path d="" fill="#000000" transform="translate(0,0)"/>
<path d="" fill="#000000" transform="translate(0,0)"/>
<path d="" fill="#000000" transform="translate(0,0)"/>
<path d="" fill="#F5F5F5" transform="translate(0,0)"/>
<path d="" fill="#000000" transform="translate(0,0)"/>
<path d="" fill="#000000" transform="translate(0,0)"/>
<path d="" fill="#F5F5F5" transform="translate(0,0)"/>
<path d="" fill="#000000" transform="translate(0,0)"/>
<path d="" fill="#F5F5F5" transform="translate(0,0)"/>
<path d="" fill="#F5F5F5" transform="translate(0,0)"/>
<path d="" fill="#F5F5F5" transform="translate(0,0)"/>
<path d="" fill="#000000" transform="translate(0,0)"/>
<path d="" fill="#000000" transform="translate(0,0)"/>
<path d="" fill="#000000" transform="translate(0,0)"/>
<path d="" fill="#F5F5F5" transform="translate(0,0)"/>
<path d="" fill="#F5F5F5" transform="translate(0,0)"/>
<path d="" fill="#000000" transform="translate(0,0)"/>
<path d="" fill="#000000" transform="translate(0,0)"/>
<path d="" fill="#000000" transform="translate(0,0)"/>
<path d="" fill="#F5F5F5" transform="translate(0,0)"/>
<path d="" fill="#F5F5F5" transform="translate(0,0)"/>
<path d="" fill="#F5F5F5" transform="translate(0,0)"/>
<path d="" fill="#F5F5F5" transform="translate(0,0)"/>
<path d="" fill="#F5F5F5" transform="translate(0,0)"/>
<path d="" fill="#F5F5F5" transform="translate(0,0)"/>
<path d="" fill="#F5F5F5" transform="translate(0,0)"/>
<path d="" fill="#000000" transform="translate(0,0)"/>
<path d="" fill="#F5F5F5" transform="translate(0,0)"/>
<path d="" fill="#F5F5F5" transform="translate(0,0)"/>
<path d="" fill="#F5F5F5" transform="translate(0,0)"/>
<path d="" fill="#F5F5F5" transform="translate(0,0)"/>
<path d="" fill="#000000" transform="translate(0,0)"/>
<path d="" fill="#000000" transform="translate(0,0)"/>
<path d="" fill="#F5F5F5" transform="translate(0,0)"/>
<path d="" fill="#F5F5F5" transform="translate(0,0)"/>
<path d="" fill="#F5F5F5" transform="translate(0,0)"/>
<path d="" fill="#F5F5F5" transform="translate(0,0)"/>
<path d="" fill="#000000" transform="translate(0,0)"/>
<path d="" fill="#F5F5F5" transform="translate(0,0)"/>
<path d="" fill="#000000" transform="translate(0,0)"/>
<path d="" fill="#000000" transform="translate(0,0)"/>
<path d="" fill="#000000" transform="translate(0,0)"/>
<path d="" fill="#000000" transform="translate(0,0)"/>
<path d="" fill="#F5F5F5" transform="translate(0,0)"/>
<path d="" fill="#000000" transform="translate(0,0)"/>
<path d="" fill="#F5F5F5" transform="translate(0,0)"/>
<path d="" fill="#000000" transform="translate(0,0)"/>
<path d="" fill="#000000" transform="translate(0,0)"/>
<path d="" fill="#000000" transform="translate(0,0)"/>
<path d="" fill="#000000" transform="translate(0,0)"/>
<path d="" fill="#F5F5F5" transform="translate(0,0)"/>
<path d="" fill="#000000" transform="translate(0,0)"/>
<path d="" fill="#000000" transform="translate(0,0)"/>
<path d="" fill="#000000" transform="translate(0,0)"/>
<path d="" fill="#F5F5F5" transform="translate(0,0)"/>
<path d="" fill="#000000" transform="translate(0,0)"/>
<path d="" fill="#000000" transform="translate(0,0)"/>
<path d="" fill="#000000" transform="translate(0,0)"/>
<path d="" fill="#000000" transform="translate(0,0)"/>
<path d="" fill="#F5F5F5" transform="translate(0,0)"/>
<path d="" fill="#F5F5F5" transform="translate(0,0)"/>
<path d="" fill="#F5F5F5" transform="translate(0,0)"/>
<path d="" fill="#000000" transform="translate(0,0)"/>
<path d="" fill="#000000" transform="translate(0,0)"/>
<path d="" fill="#000000" transform="translate(0,0)"/>
<path d="" fill="#000000" transform="translate(0,0)"/>
<path d="" fill="#000000" transform="translate(0,0)"/>
<path d="" fill="#000000" transform="translate(0,0)"/>
<path d="" fill="#000000" transform="translate(0,0)"/>
<path d="" fill="#000000" transform="translate(0,0)"/>
<path d="" fill="#000000" transform="translate(0,0)"/>
<path d="" fill="#F5F5F5" transform="translate(0,0)"/>
<path d="" fill="#F5F5F5" transform="translate(0,0)"/>
<path d="" fill="#F5F5F5" transform="translate(0,0)"/>
<path d="" fill="#F5F5F5" transform="translate(0,0)"/>
<path d="" fill="#F5F5F5" transform="translate(0,0)"/>
<path d="" fill="#F5F5F5" transform="translate(0,0)"/>
<path d="" fill="#F5F5F5" transform="translate(0,0)"/>
<path d="" fill="#F5F5F5" transform="translate(0,0)"/>
<path d="" fill="#F5F5F5" transform="translate(0,0)"/>
<path d="" fill="#F5F5F5" transform="translate(0,0)"/>
<path d="" fill="#000000" transform="translate(0,0)"/>
<path d="" fill="#000000" transform="translate(0,0)"/>
<path d="" fill="#F5F5F5" transform="translate(0,0)"/>
<path d="" fill="#F5F5F5" transform="translate(0,0)"/>
<path d="" fill="#F5F5F5" transform="translate(0,0)"/>
<path d="" fill="#F5F5F5" transform="translate(0,0)"/>
<path d="" fill="#F5F5F5" transform="translate(0,0)"/>
<path d="" fill="#F5F5F5" transform="translate(0,0)"/>
<path d="" fill="#F5F5F5" transform="translate(0,0)"/>
</svg>
